<svg width="750" height="500" viewBox="0 0 750 500" fill="none" xmlns="http://www.w3.org/2000/svg">
<path d="M459.13 329.84C459.749 326.028 461.693 322.557 464.62 320.039C467.547 317.52 471.269 316.114 475.13 316.07C509.67 315.61 597.61 314.82 602.33 318.56C608.21 323.23 611.33 325.62 610.82 333.03C610.39 339.83 602.98 457.32 602.98 457.32H438.37L459.13 329.84Z" fill="#455A64"/>
<path d="M584.2 457.38C584.175 457.265 584.158 457.148 584.15 457.03C584.15 456.78 584.15 456.44 584.07 456.03C584 455.11 583.9 453.79 583.78 452.12C583.66 450.45 583.52 448.33 583.44 445.91C583.36 443.49 583.2 440.73 583.2 437.68C583.2 436.15 583.2 434.55 583.15 432.89C583.1 431.23 583.15 429.49 583.21 427.7C583.21 424.11 583.42 420.28 583.59 416.25C584.05 408.19 584.81 399.35 586.04 390.12C587.27 380.89 588.95 372.12 590.66 364.27C591.57 360.34 592.41 356.6 593.35 353.13C593.81 351.4 594.22 349.72 594.68 348.13C595.14 346.54 595.59 345 596.01 343.53C596.83 340.59 597.72 337.98 598.44 335.66C599.16 333.34 599.85 331.38 600.44 329.77C601.03 328.16 601.44 326.95 601.76 326.07L602.12 325.07C602.2 324.86 602.25 324.75 602.25 324.75C602.236 324.866 602.209 324.98 602.17 325.09L601.86 326.09C601.57 326.98 601.16 328.23 600.63 329.83C600.1 331.43 599.42 333.42 598.73 335.74C598.04 338.06 597.17 340.68 596.38 343.62C595.96 345.09 595.53 346.62 595.08 348.23C594.63 349.84 594.23 351.52 593.78 353.23C592.86 356.69 592.04 360.44 591.14 364.36C589.45 372.24 587.85 380.96 586.57 390.18C585.29 399.4 584.57 408.18 584.08 416.26C583.9 420.26 583.68 424.11 583.65 427.7C583.65 429.49 583.56 431.22 583.56 432.88C583.56 434.54 583.56 436.14 583.56 437.66C583.56 440.71 583.67 443.47 583.73 445.89C583.79 448.31 583.88 450.39 583.97 452.09C584.06 453.79 584.12 455.09 584.16 456.02C584.16 456.44 584.16 456.78 584.16 457.02C584.185 457.138 584.198 457.259 584.2 457.38Z" fill="#263238"/>
<path d="M491.65 375.21C491.65 375.21 491.73 375.21 491.9 375.11C492.152 375.07 492.408 375.07 492.66 375.11C493.139 375.164 493.601 375.318 494.016 375.563C494.432 375.808 494.791 376.137 495.07 376.53C495.484 377.125 495.726 377.823 495.768 378.546C495.811 379.27 495.652 379.991 495.31 380.63C494.94 381.393 494.391 382.055 493.71 382.56C492.958 383.085 492.076 383.393 491.16 383.45C490.231 383.523 489.304 383.28 488.53 382.76C488.173 382.511 487.868 382.194 487.635 381.827C487.401 381.459 487.243 381.049 487.17 380.62C487.047 379.91 487.097 379.181 487.317 378.495C487.536 377.809 487.918 377.187 488.43 376.68C490.28 375.1 491.91 375.05 491.88 375.2C491.85 375.35 491.79 375.2 491.63 375.2C491.39 375.259 491.156 375.339 490.93 375.44C490.1 375.78 489.34 376.272 488.69 376.89C488.247 377.365 487.921 377.937 487.739 378.56C487.556 379.184 487.523 379.841 487.64 380.48C487.706 380.845 487.845 381.193 488.048 381.504C488.25 381.815 488.513 382.082 488.82 382.29C489.499 382.74 490.309 382.948 491.12 382.88C491.941 382.831 492.733 382.558 493.41 382.09C494.037 381.65 494.543 381.058 494.88 380.37C495.197 379.804 495.354 379.163 495.334 378.515C495.315 377.867 495.12 377.236 494.77 376.69C494.273 375.954 493.509 375.441 492.64 375.26C492.311 375.223 491.981 375.206 491.65 375.21Z" fill="#263238"/>
<path d="M517.46 360.28C517.46 360.39 515.76 360.08 513.04 360.33C509.491 360.644 506.088 361.888 503.174 363.937C500.259 365.986 497.937 368.767 496.44 372C495.27 374.47 494.99 376.16 494.88 376.14C494.892 375.737 494.956 375.337 495.07 374.95C495.303 373.887 495.638 372.849 496.07 371.85C497.518 368.501 499.867 365.619 502.856 363.527C505.846 361.435 509.357 360.214 513 360C514.09 359.929 515.185 359.959 516.27 360.09C516.673 360.101 517.073 360.165 517.46 360.28Z" fill="#263238"/>
<path d="M469.72 390.85C469.811 390.55 469.942 390.264 470.11 390C470.523 389.26 471.009 388.564 471.56 387.92C473.372 385.748 475.747 384.116 478.424 383.203C481.101 382.289 483.978 382.129 486.74 382.74C487.569 382.921 488.379 383.179 489.16 383.51C489.454 383.617 489.733 383.761 489.99 383.94C489.99 384.04 488.75 383.47 486.67 383.1C483.97 382.607 481.189 382.813 478.591 383.699C475.994 384.584 473.666 386.12 471.83 388.16C470.42 389.72 469.81 390.9 469.72 390.85Z" fill="#263238"/>
<path d="M501.57 394.94C500.944 394.629 500.373 394.217 499.88 393.72C498.622 392.589 497.523 391.294 496.61 389.87C495.694 388.451 494.977 386.914 494.48 385.3C494.224 384.646 494.086 383.952 494.07 383.25C494.866 385.454 495.871 387.577 497.07 389.59C498.406 391.505 499.912 393.296 501.57 394.94Z" fill="#263238"/>
<path d="M547.23 376.6C547.23 376.6 547.31 376.55 547.48 376.5C547.732 376.46 547.988 376.46 548.24 376.5C548.718 376.557 549.18 376.712 549.594 376.956C550.009 377.201 550.369 377.529 550.65 377.92C551.059 378.517 551.297 379.214 551.341 379.936C551.386 380.657 551.233 381.378 550.9 382.02C550.527 382.784 549.974 383.446 549.29 383.95C548.538 384.475 547.656 384.783 546.74 384.84C545.811 384.913 544.884 384.67 544.11 384.15C543.391 383.645 542.902 382.875 542.75 382.01C542.614 381.29 542.657 380.548 542.875 379.849C543.093 379.15 543.479 378.515 544 378C545.85 376.43 547.48 376.37 547.45 376.52C547.42 376.67 547.36 376.52 547.2 376.57C546.96 376.629 546.726 376.709 546.5 376.81C545.67 377.15 544.91 377.642 544.26 378.26C543.826 378.739 543.509 379.314 543.336 379.937C543.162 380.56 543.136 381.215 543.26 381.85C543.398 382.586 543.823 383.237 544.44 383.66C545.119 384.11 545.929 384.318 546.74 384.25C547.561 384.201 548.353 383.928 549.03 383.46C549.657 383.02 550.163 382.428 550.5 381.74C550.817 381.174 550.974 380.533 550.954 379.885C550.935 379.237 550.74 378.606 550.39 378.06C549.893 377.324 549.129 376.811 548.26 376.63C547.918 376.598 547.574 376.588 547.23 376.6Z" fill="#263238"/>
<path d="M573 361.67C573 361.78 571.3 361.47 568.58 361.72C565.039 362.034 561.643 363.273 558.733 365.315C555.822 367.356 553.5 370.127 552 373.35C550.83 375.82 550.55 377.51 550.44 377.49C550.452 377.087 550.516 376.687 550.63 376.3C550.863 375.237 551.198 374.199 551.63 373.2C553.076 369.854 555.423 366.974 558.408 364.882C561.393 362.79 564.901 361.567 568.54 361.35C569.63 361.279 570.725 361.309 571.81 361.44C572.215 361.464 572.615 361.541 573 361.67Z" fill="#263238"/>
<path d="M525.3 392.24C525.391 391.94 525.522 391.654 525.69 391.39C526.107 390.653 526.592 389.956 527.14 389.31C528.956 387.143 531.331 385.514 534.007 384.601C536.683 383.687 539.558 383.525 542.32 384.13C543.152 384.313 543.965 384.57 544.75 384.9C545.045 385.003 545.321 385.152 545.57 385.34C545.57 385.43 544.33 384.86 542.25 384.49C539.552 383.997 536.772 384.203 534.176 385.089C531.58 385.974 529.254 387.51 527.42 389.55C526 391.11 525.39 392.29 525.3 392.24Z" fill="#263238"/>
<path d="M557.15 396.33C556.524 396.019 555.953 395.607 555.46 395.11C554.205 393.976 553.106 392.682 552.19 391.26C551.274 389.841 550.557 388.304 550.06 386.69C549.81 386.052 549.671 385.375 549.65 384.69C550.448 386.89 551.452 389.01 552.65 391.02C553.988 392.922 555.494 394.699 557.15 396.33Z" fill="#263238"/>
<path d="M244.12 447.21C243.79 447.28 242.38 448.71 244.39 450.98C246.4 453.25 258.52 459.46 260.75 455.75C262.98 452.04 257.6 449.46 257.6 449.46L244.12 447.21Z" fill="#FFBE9D"/>
<path d="M257.43 443.21C257.43 443.21 269.93 441.83 275.03 442.48C280.56 443.19 286.43 440.4 289.91 436.58C292.089 434.046 293.598 431.007 294.3 427.74L302.3 422.18C302.3 422.18 303.16 403.27 290.55 406.32L275.82 406.84C275.82 406.84 246.82 411.64 242.34 415.25C242.34 415.25 236.88 420.56 235.29 422.61C234.69 423.39 234.18 431.18 239.72 433.84C239.72 433.84 236.45 438.01 239.33 440.37L240.68 441.37C240.68 441.37 238.81 445.54 240.57 446.73C242.33 447.92 256.24 452.14 260.19 449.39C264.14 446.64 259.56 443.47 257.47 443.19" fill="#FFBE9D"/>
<path d="M241.85 433.1C242.397 433.125 242.941 433.185 243.48 433.28C244.53 433.41 246.05 433.6 247.94 433.74C248.88 433.8 249.94 433.86 251.02 433.88C252.1 433.9 253.31 433.88 254.58 433.97C255.945 434.008 257.271 434.427 258.41 435.18C259.035 435.598 259.538 436.175 259.866 436.852C260.195 437.528 260.338 438.28 260.28 439.03C260.16 439.81 259.762 440.52 259.16 441.03C258.604 441.499 257.962 441.856 257.27 442.08C256 442.475 254.687 442.72 253.36 442.81C251.131 442.979 248.891 442.935 246.67 442.68C244.78 442.48 243.27 442.23 242.23 442.05C241.681 441.987 241.138 441.873 240.61 441.71C241.159 441.717 241.707 441.764 242.25 441.85C243.31 441.97 244.83 442.16 246.71 442.31C248.906 442.502 251.114 442.502 253.31 442.31C254.597 442.21 255.868 441.965 257.1 441.58C257.727 441.372 258.31 441.05 258.82 440.63C259.32 440.201 259.653 439.61 259.76 438.96C259.805 438.303 259.676 437.645 259.387 437.054C259.097 436.462 258.657 435.957 258.11 435.59C257.045 434.893 255.812 434.495 254.54 434.44C253.32 434.33 252.12 434.37 251.01 434.31C249.9 434.25 248.85 434.2 247.9 434.1C246.01 433.92 244.5 433.68 243.45 433.48C242.905 433.409 242.369 433.281 241.85 433.1Z" fill="#EB996E"/>
<path d="M240.83 424.07C241.377 424.088 241.922 424.148 242.46 424.25C243.46 424.39 245.02 424.59 246.89 424.75C248.76 424.91 251 425.04 253.49 425.04C254.834 424.933 256.186 425.135 257.44 425.63C258.117 425.969 258.65 426.54 258.94 427.24C259.219 427.952 259.292 428.728 259.15 429.48C258.989 430.201 258.682 430.881 258.246 431.478C257.811 432.075 257.257 432.576 256.62 432.95C255.466 433.65 254.165 434.071 252.82 434.18C250.599 434.273 248.373 434.169 246.17 433.87L241.73 433.42C241.181 433.387 240.635 433.307 240.1 433.18C240.646 433.138 241.194 433.138 241.74 433.18L246.2 433.47C248.382 433.707 250.578 433.77 252.77 433.66C254.039 433.545 255.264 433.138 256.35 432.47C256.924 432.134 257.422 431.684 257.814 431.147C258.206 430.61 258.484 429.999 258.63 429.35C258.783 428.718 258.726 428.053 258.468 427.456C258.21 426.859 257.765 426.362 257.2 426.04C256.022 425.575 254.753 425.384 253.49 425.48C250.98 425.48 248.74 425.29 246.86 425.08C244.98 424.87 243.47 424.61 242.43 424.41C241.888 424.344 241.352 424.23 240.83 424.07Z" fill="#EB996E"/>
<path d="M247.28 425.17C246.843 424.431 246.466 423.658 246.15 422.86C245.682 422.141 245.281 421.381 244.95 420.59C245.05 420.49 245.95 421.31 246.61 422.59C247.1 423.358 247.335 424.261 247.28 425.17Z" fill="#EB996E"/>
<path d="M285.52 407.08L273.7 405.51C273.7 405.51 240.3 398.7 239.97 399.58C239.64 400.46 237.97 400.77 239.23 404.35C240.49 407.93 259.74 411.1 260.6 412.24C261.46 413.38 262.08 420.01 269.6 423.06C277.12 426.11 281.86 425.06 281.86 425.06" fill="#FFBE9D"/>
<path d="M281.9 425.08L281.65 425.15L280.88 425.26C279.882 425.344 278.878 425.344 277.88 425.26C276.315 425.126 274.766 424.852 273.25 424.44C271.228 423.927 269.277 423.168 267.44 422.18C265.222 420.898 263.415 419.011 262.23 416.74C261.608 415.482 261.073 414.182 260.63 412.85C260.567 412.699 260.493 412.552 260.41 412.41C260.309 412.314 260.19 412.24 260.06 412.19C259.733 412.056 259.399 411.939 259.06 411.84C258.36 411.62 257.64 411.43 256.9 411.24C253.96 410.47 250.85 409.73 247.67 408.8C246.08 408.33 244.47 407.8 242.87 407.17C242.056 406.848 241.27 406.46 240.52 406.01C240.127 405.771 239.764 405.486 239.44 405.16C239.273 404.979 239.135 404.773 239.03 404.55C238.92 404.32 238.89 404.11 238.81 403.9C238.496 403.024 238.441 402.077 238.65 401.17C238.801 400.729 239.047 400.326 239.37 399.99C239.499 399.851 239.61 399.697 239.7 399.53C239.7 399.53 239.7 399.53 239.78 399.4C239.828 399.34 239.895 399.298 239.97 399.28C240.043 399.273 240.117 399.273 240.19 399.28H240.54C242.28 399.39 243.93 399.68 245.54 399.94C248.81 400.48 251.95 401.06 254.94 401.63C260.94 402.76 266.28 403.84 270.79 404.77C271.91 404.99 272.99 405.25 274 405.42L276.9 405.82L281.53 406.48L284.46 406.92L285.22 407.05L285.48 407.11C285.391 407.125 285.299 407.125 285.21 407.11L284.45 407.04L281.5 406.69L276.85 406.12L273.94 405.75C272.94 405.59 271.85 405.35 270.72 405.14L254.85 402.14C251.85 401.59 248.72 401.01 245.46 400.48C243.83 400.23 242.15 399.94 240.46 399.83H240.16H240.06C240.06 399.83 240.06 399.75 240.01 399.71C240.4 399.85 240.11 399.71 240.2 399.8C240.099 400.019 239.96 400.219 239.79 400.39C239.514 400.675 239.303 401.016 239.17 401.39C238.999 402.197 239.058 403.035 239.34 403.81C239.416 404.203 239.595 404.569 239.86 404.87C240.162 405.162 240.498 405.418 240.86 405.63C241.587 406.061 242.346 406.435 243.13 406.75C244.7 407.39 246.29 407.9 247.88 408.37C251.04 409.31 254.14 410.05 257.08 410.83C257.82 411.03 258.55 411.23 259.26 411.45C259.621 411.553 259.976 411.68 260.32 411.83C260.531 411.906 260.717 412.037 260.86 412.21C260.972 412.375 261.062 412.553 261.13 412.74C261.564 414.061 262.088 415.351 262.7 416.6C263.827 418.813 265.561 420.658 267.7 421.92C269.501 422.913 271.414 423.685 273.4 424.22C274.894 424.651 276.423 424.949 277.97 425.11C278.946 425.215 279.929 425.248 280.91 425.21C281.25 425.21 281.51 425.21 281.68 425.21L281.9 425.08Z" fill="#EB996E"/>
<path d="M253.79 442.62C254.201 442.574 254.616 442.594 255.02 442.68C256.133 442.842 257.217 443.162 258.24 443.63C258.949 443.955 259.619 444.358 260.24 444.83C260.628 445.099 260.959 445.443 261.213 445.841C261.467 446.24 261.64 446.684 261.72 447.15C261.744 447.684 261.618 448.214 261.356 448.681C261.095 449.147 260.708 449.532 260.24 449.79C259.27 450.322 258.162 450.552 257.06 450.45C253.381 450.252 249.729 449.713 246.15 448.84C244.78 448.49 243.69 448.13 242.95 447.84C242.557 447.718 242.178 447.554 241.82 447.35C242.226 447.404 242.625 447.501 243.01 447.64C243.77 447.86 244.86 448.16 246.23 448.46C249.804 449.223 253.431 449.708 257.08 449.91C258.078 450.007 259.083 449.809 259.97 449.34C260.362 449.132 260.689 448.819 260.913 448.436C261.138 448.052 261.251 447.614 261.24 447.17C261.095 446.363 260.639 445.645 259.97 445.17C259.381 444.699 258.74 444.297 258.06 443.97C256.701 443.339 255.265 442.885 253.79 442.62Z" fill="#EB996E"/>
<path d="M340.74 374.35C340.74 374.35 355.55 349.97 358.88 333.88C362.21 317.79 379.41 292.26 385 285.6C390.59 278.94 412.75 271.18 412.75 271.18L420.93 266.76L484.32 261.19C484.32 261.19 526.49 265.63 539.26 277.28C552.03 288.93 562 315.57 562 328.88C562 342.19 574.89 457.52 574.89 457.52L418.68 457.32L422.18 400.46C422.18 400.46 403.31 387.7 398.32 376.6C393.33 365.5 396.1 371.05 396.1 371.05C396.1 371.05 378.39 408.7 372.29 413.14C366.19 417.58 295.24 439.35 295.24 439.35L285.53 402.12L340.74 374.35Z" fill="#FF725E"/>
<path d="M525.17 281.93C523.46 282.46 502.3 337.11 500.81 342.08C499.32 347.05 500.81 378.37 500.81 378.37L507.81 391.3C507.81 391.3 505.81 400.74 507.31 405.22L475.99 411.22C475.99 411.22 468.04 405.75 460.58 411.22L423.58 414.35C423.58 414.35 434.43 414.47 431.2 431.11C428.04 447.41 425.63 450.99 425.63 450.99L555.48 447.99C555.48 447.99 569.91 447.27 567.71 419.53C565.51 391.79 559.32 315.27 559.32 315.27C559.32 315.27 549.86 274.27 525.17 281.93Z" fill="#FF725E"/>
<path d="M500.52 374C500.388 373.791 500.284 373.566 500.21 373.33L499.42 371.33C499.08 370.48 498.67 369.43 498.27 368.18C497.87 366.93 497.34 365.54 496.92 363.95C496.5 362.36 495.92 360.63 495.53 358.74C495.14 356.85 494.67 354.83 494.27 352.74C493.459 348.081 492.948 343.375 492.74 338.65C492.588 333.922 492.731 329.19 493.17 324.48C493.43 322.32 493.64 320.26 493.99 318.35C494.15 317.35 494.28 316.47 494.46 315.58C494.64 314.69 494.82 313.86 494.99 313.05C495.31 311.44 495.72 310.05 496.05 308.73C496.38 307.41 496.69 306.39 496.98 305.51C497.27 304.63 497.47 304.01 497.63 303.51C497.705 303.272 497.791 303.039 497.89 302.81C497.867 303.059 497.814 303.304 497.73 303.54C497.59 304.05 497.4 304.73 497.17 305.54C496.94 306.35 496.61 307.54 496.33 308.78C496.05 310.02 495.64 311.48 495.33 313.1C495.17 313.91 495.01 314.75 494.84 315.63C494.67 316.51 494.55 317.43 494.4 318.38C494.07 320.29 493.87 322.38 493.63 324.5C492.745 333.88 493.111 343.336 494.72 352.62C495.11 354.76 495.47 356.79 495.93 358.62C496.39 360.45 496.82 362.24 497.25 363.83C497.68 365.42 498.15 366.83 498.53 368.07C498.91 369.31 499.28 370.38 499.59 371.24L500.29 373.24C500.383 373.488 500.46 373.742 500.52 374Z" fill="#263238"/>
<path d="M545.7 433.27C545.7 433.27 545.57 433.15 545.36 432.89L544.5 431.74C544.13 431.23 543.67 430.62 543.11 429.94C542.55 429.26 541.94 428.45 541.19 427.62C540.44 426.79 539.65 425.86 538.73 424.93C537.81 424 536.81 423.01 535.73 422C533.369 419.841 530.87 417.837 528.25 416C525.61 414.199 522.858 412.569 520.01 411.12C518.68 410.48 517.43 409.85 516.21 409.36C514.99 408.87 513.87 408.36 512.83 408.01C511.79 407.66 510.83 407.32 509.98 407.01C509.13 406.7 508.41 406.51 507.81 406.35L506.43 405.94C506.262 405.903 506.101 405.842 505.95 405.76C506.119 405.768 506.287 405.794 506.45 405.84L507.86 406.15C508.47 406.29 509.21 406.47 510.07 406.73C510.93 406.99 511.9 407.25 512.95 407.65C514 408.05 515.17 408.42 516.38 408.94C517.59 409.46 518.88 410.04 520.22 410.67C523.107 412.101 525.89 413.731 528.55 415.55C531.184 417.398 533.69 419.423 536.05 421.61C537.12 422.61 538.14 423.61 539.05 424.61C539.96 425.61 540.76 426.5 541.48 427.36C542.2 428.22 542.8 429.04 543.35 429.74C543.9 430.44 544.35 431.08 544.67 431.6C544.99 432.12 545.25 432.48 545.46 432.81C545.559 432.953 545.64 433.107 545.7 433.27Z" fill="#263238"/>
<path d="M556.63 426C556.55 426.07 555.4 424.76 553.24 423C551.975 421.973 550.638 421.037 549.24 420.2C547.515 419.19 545.712 418.317 543.85 417.59C541.976 416.898 540.05 416.356 538.09 415.97C536.485 415.666 534.861 415.475 533.23 415.4C530.44 415.29 528.71 415.5 528.7 415.4C529.094 415.287 529.5 415.22 529.91 415.2C530.384 415.129 530.861 415.086 531.34 415.07C531.9 415.07 532.53 415 533.24 415.07C534.896 415.098 536.548 415.255 538.18 415.54C540.173 415.905 542.131 416.443 544.03 417.15C545.926 417.88 547.753 418.777 549.49 419.83C550.898 420.697 552.235 421.673 553.49 422.75C554.04 423.2 554.49 423.66 554.88 424.05C555.234 424.362 555.568 424.696 555.88 425.05C556.164 425.339 556.415 425.657 556.63 426Z" fill="#263238"/>
<path d="M544.62 407.71C544.56 407.8 543.03 406.58 540.23 405.2C539.469 404.823 538.688 404.489 537.89 404.2C537.05 403.84 536.11 403.57 535.13 403.26C530.821 402.02 526.298 401.71 521.86 402.35C520.86 402.52 519.86 402.66 519 402.9C518.168 403.089 517.347 403.323 516.54 403.6C513.54 404.6 511.9 405.6 511.85 405.48C512.214 405.203 512.606 404.965 513.02 404.77C513.48 404.498 513.958 404.257 514.45 404.05C515.102 403.749 515.77 403.482 516.45 403.25C517.257 402.947 518.082 402.693 518.92 402.49C519.875 402.232 520.843 402.025 521.82 401.87C526.323 401.169 530.926 401.487 535.29 402.8C536.239 403.077 537.171 403.411 538.08 403.8C538.885 404.114 539.67 404.478 540.43 404.89C541.062 405.213 541.676 405.57 542.27 405.96C542.732 406.226 543.173 406.527 543.59 406.86C543.965 407.103 544.311 407.388 544.62 407.71Z" fill="#263238"/>
<path d="M468.68 448.69C469.098 446.857 469.405 445 469.6 443.13C469.757 441.096 469.74 439.052 469.55 437.02C469.306 434.534 468.871 432.07 468.25 429.65C467.589 427.26 466.757 424.921 465.76 422.65C464.903 420.793 463.9 419.008 462.76 417.31C461.666 415.776 460.487 414.304 459.23 412.9C459.639 413.202 460.024 413.537 460.38 413.9C460.817 414.311 461.225 414.752 461.6 415.22L462.32 416.07C462.57 416.39 462.8 416.73 463.06 417.07C464.251 418.757 465.288 420.548 466.16 422.42C468.284 427.018 469.584 431.953 470 437C470.169 439.058 470.149 441.126 469.94 443.18C469.89 443.62 469.84 444.03 469.8 444.43L469.58 445.53C469.486 446.12 469.345 446.702 469.16 447.27C469.038 447.755 468.877 448.23 468.68 448.69Z" fill="#263238"/>
<path d="M446.91 411.16C446.876 411.067 446.855 410.969 446.85 410.87C446.85 410.65 446.77 410.37 446.71 410.02C446.6 409.23 446.44 408.13 446.24 406.73C445.83 403.87 445.3 399.73 444.68 394.59C443.45 384.34 441.98 370.14 440.83 354.42C439.68 338.7 439.08 324.42 438.83 314.11C438.69 308.95 438.62 304.77 438.6 301.88C438.6 300.47 438.6 299.35 438.6 298.56V297.69C438.564 297.683 438.531 297.662 438.509 297.632C438.487 297.602 438.477 297.565 438.481 297.528C438.485 297.491 438.502 297.457 438.529 297.432C438.557 297.407 438.593 297.393 438.63 297.393C438.667 297.393 438.703 297.407 438.731 297.432C438.758 297.457 438.775 297.491 438.779 297.528C438.783 297.565 438.773 297.602 438.751 297.632C438.729 297.662 438.696 297.683 438.66 297.69C438.66 297.92 438.66 298.2 438.66 298.56C438.66 299.35 438.72 300.46 438.77 301.88C438.86 304.8 438.99 308.97 439.15 314.1C439.52 324.42 440.15 338.67 441.32 354.39C442.49 370.11 443.88 384.29 445.02 394.55C445.6 399.65 446.08 403.79 446.41 406.7C446.57 408.11 446.69 409.21 446.78 410.01C446.78 410.36 446.85 410.64 446.87 410.87C446.892 410.965 446.906 411.062 446.91 411.16Z" fill="#263238"/>
<path d="M395.9 371.77C395.636 371.277 395.409 370.766 395.22 370.24C394.82 369.24 394.22 367.81 393.47 366.04C391.97 362.51 389.73 357.7 387.05 352.48C384.37 347.26 381.95 342.63 380.14 339.15C379.27 337.43 378.57 336.04 378.14 335.07C377.877 334.575 377.653 334.06 377.47 333.53C377.796 333.983 378.081 334.465 378.32 334.97L380.49 338.97C382.31 342.35 384.87 346.97 387.55 352.24C390.23 357.51 392.42 362.31 393.84 365.89C394.55 367.68 395.1 369.14 395.44 370.16C395.636 370.684 395.789 371.222 395.9 371.77Z" fill="#263238"/>
<path d="M387.92 353.29C387.61 353.28 387.303 353.222 387.01 353.12C386.44 352.98 385.62 352.74 384.61 352.41C379.366 350.671 374.391 348.207 369.83 345.09C368.96 344.49 368.27 343.98 367.83 343.61C367.578 343.437 367.35 343.232 367.15 343C368.15 343.542 369.122 344.136 370.06 344.78C371.84 345.9 374.34 347.37 377.22 348.78C380.1 350.19 382.78 351.3 384.75 352.04C385.827 352.403 386.885 352.82 387.92 353.29Z" fill="#263238"/>
<path d="M374.51 387.44C374.126 387.266 373.763 387.048 373.43 386.79C372.77 386.34 371.79 385.7 370.56 384.96C364.15 381.046 357.054 378.389 349.65 377.13C348.23 376.88 347.08 376.72 346.28 376.62C345.86 376.598 345.444 376.527 345.04 376.41C345.459 376.362 345.881 376.362 346.3 376.41C347.1 376.41 348.3 376.55 349.71 376.75C353.467 377.283 357.155 378.222 360.71 379.55C364.248 380.88 367.633 382.583 370.81 384.63C372.02 385.43 372.97 386.11 373.6 386.63C373.927 386.872 374.231 387.144 374.51 387.44Z" fill="#263238"/>
<path d="M482.63 261.28C482.624 261.551 482.604 261.821 482.57 262.09C482.5 262.67 482.41 263.44 482.3 264.41C482.04 266.41 481.68 269.33 481.07 272.91C480.383 277.108 479.448 281.262 478.27 285.35C476.832 290.371 474.723 295.174 472 299.63C470.483 302.02 468.739 304.257 466.79 306.31L466.59 306.53L466.4 306.28C463.901 302.946 460.649 300.249 456.91 298.41C455.313 297.622 453.637 297.005 451.91 296.57C450.419 296.21 448.894 296.005 447.36 295.96C445.163 295.882 442.97 296.19 440.88 296.87C439.43 297.38 438.66 297.76 438.64 297.71C438.815 297.598 438.999 297.501 439.19 297.42C439.717 297.145 440.261 296.904 440.82 296.7C442.919 295.944 445.139 295.581 447.37 295.63C448.932 295.652 450.487 295.84 452.01 296.19C453.77 296.614 455.479 297.224 457.11 298.01C460.935 299.865 464.261 302.608 466.81 306.01H466.42C468.337 303.976 470.058 301.767 471.56 299.41C474.262 294.993 476.371 290.238 477.83 285.27C479.019 281.205 479.987 277.079 480.73 272.91C481.39 269.35 481.8 266.44 482.12 264.44C482.27 263.44 482.4 262.71 482.49 262.14C482.501 261.849 482.548 261.56 482.63 261.28Z" fill="#263238"/>
<path d="M483.48 261.91L473.85 249.14L463.38 249.47L429.36 267.44L483.48 261.91Z" fill="#FF725E"/>
<path d="M438.62 297.71C438.437 297.732 438.253 297.732 438.07 297.71C437.542 297.658 437.017 297.571 436.5 297.45C434.605 296.958 432.794 296.182 431.13 295.15C430.007 294.445 428.773 293.934 427.48 293.64C425.99 293.32 424.45 293.32 422.96 293.64C421.257 294.026 419.676 294.828 418.358 295.975C417.041 297.121 416.028 298.576 415.41 300.21L414.87 301.67V300.11C414.87 299.72 414.87 299.31 414.87 298.89C414.99 291.01 415 283.89 415.32 278.7C415.47 276.12 415.67 274.03 415.89 272.6C415.98 271.88 416.09 271.33 416.17 270.96C416.201 270.77 416.248 270.582 416.31 270.4C416.36 270.4 416.22 271.19 416.09 272.63C415.96 274.07 415.79 276.14 415.69 278.72C415.46 283.88 415.52 291.01 415.39 298.9C415.39 299.32 415.39 299.74 415.39 300.13L414.89 300.03C415.539 298.318 416.605 296.794 417.991 295.598C419.378 294.402 421.041 293.571 422.83 293.18C424.277 292.889 425.768 292.887 427.216 293.174C428.665 293.46 430.042 294.03 431.27 294.85C432.898 295.893 434.661 296.707 436.51 297.27C437.86 297.61 438.63 297.66 438.62 297.71Z" fill="#263238"/>
<path d="M473.85 187.3V264C473.855 268.39 472.307 272.641 469.48 276C465.146 281.132 459.931 285.45 454.08 288.75L438.62 297.46L425.82 286C423.96 284.335 422.453 282.313 421.39 280.054C420.326 277.795 419.728 275.345 419.63 272.85C419.41 267.27 419.41 261.64 419.41 261.64C419.41 261.64 397.74 260.08 395.7 238.71C394.7 228.65 394.44 208.04 394.39 189.04C394.367 178.59 398.279 168.515 405.349 160.819C412.418 153.124 422.126 148.372 432.54 147.51L433.15 147.46C438.457 147.332 443.737 148.268 448.676 150.214C453.616 152.16 458.115 155.076 461.909 158.79C465.703 162.503 468.714 166.939 470.765 171.836C472.816 176.733 473.865 181.991 473.85 187.3Z" fill="#FFBE9D"/>
<path d="M419.35 261.32C419.35 261.32 432.96 261.32 446.59 251.08C446.59 251.08 441.27 267.02 419.76 266.86L419.35 261.32Z" fill="#EB996E"/>
<path d="M401.59 203.39C401.649 204.187 402.016 204.929 402.614 205.459C403.211 205.99 403.992 206.266 404.79 206.23C405.18 206.229 405.566 206.15 405.925 205.998C406.284 205.845 406.609 205.623 406.88 205.344C407.152 205.064 407.366 204.733 407.508 204.37C407.651 204.008 407.719 203.62 407.71 203.23C407.653 202.434 407.288 201.692 406.692 201.161C406.097 200.631 405.317 200.354 404.52 200.39C404.129 200.39 403.742 200.468 403.382 200.62C403.022 200.771 402.696 200.993 402.423 201.273C402.15 201.552 401.936 201.884 401.793 202.247C401.65 202.611 401.581 202.999 401.59 203.39Z" fill="#263238"/>
<path d="M399.85 197.65C400.26 198.01 402.43 196.11 405.72 195.85C409.01 195.59 411.56 197.03 411.88 196.6C412.04 196.4 411.6 195.72 410.48 195.04C408.968 194.164 407.22 193.782 405.48 193.95C403.77 194.08 402.147 194.757 400.85 195.88C399.93 196.74 399.65 197.48 399.85 197.65Z" fill="#263238"/>
<path d="M432.87 202.06C432.929 202.857 433.296 203.599 433.894 204.129C434.491 204.66 435.272 204.936 436.07 204.9C436.46 204.899 436.847 204.82 437.206 204.668C437.566 204.516 437.891 204.293 438.164 204.014C438.437 203.735 438.651 203.404 438.795 203.041C438.938 202.678 439.008 202.29 439 201.9C438.941 201.103 438.574 200.361 437.976 199.831C437.379 199.3 436.598 199.024 435.8 199.06C435.41 199.061 435.023 199.14 434.664 199.292C434.304 199.444 433.979 199.667 433.706 199.946C433.433 200.225 433.219 200.556 433.075 200.919C432.932 201.282 432.862 201.67 432.87 202.06Z" fill="#263238"/>
<path d="M432.22 195.59C432.63 195.95 434.81 194.05 438.09 193.79C441.37 193.53 443.93 194.97 444.25 194.53C444.41 194.34 443.97 193.65 442.85 192.98C441.337 192.105 439.59 191.72 437.85 191.88C436.141 192.015 434.519 192.691 433.22 193.81C432.3 194.67 432 195.42 432.22 195.59Z" fill="#263238"/>
<path d="M422.3 221C422.3 220.81 420.23 220.62 416.88 220.47C416.04 220.47 415.23 220.36 415.04 219.8C414.897 218.937 415.019 218.052 415.39 217.26C416.02 215.16 416.67 212.97 417.39 210.66C420.08 201.27 421.96 193.58 421.58 193.48C421.2 193.38 418.71 200.9 416.02 210.28C415.37 212.6 414.75 214.8 414.17 216.91C413.723 217.966 413.666 219.146 414.01 220.24C414.154 220.528 414.363 220.778 414.62 220.972C414.876 221.167 415.174 221.299 415.49 221.36C415.965 221.448 416.449 221.475 416.93 221.44C420.24 221.3 422.31 221.14 422.3 221Z" fill="#263238"/>
<path d="M432.17 222.43C431.63 222.43 431.92 226.01 429.07 228.8C426.22 231.59 422.4 231.51 422.41 232.01C422.41 232.23 423.32 232.63 424.93 232.54C427.021 232.396 428.994 231.517 430.5 230.06C431.954 228.664 432.805 226.755 432.87 224.74C432.88 223.24 432.41 222.39 432.17 222.43Z" fill="#263238"/>
<path d="M430.3 182.77C430.7 183.64 433.95 182.94 437.84 183.09C441.73 183.24 444.95 184.03 445.39 183.18C445.59 182.78 444.98 181.99 443.65 181.18C441.882 180.26 439.928 179.753 437.936 179.7C435.943 179.646 433.965 180.046 432.15 180.87C430.78 181.6 430.13 182.36 430.3 182.77Z" fill="#263238"/>
<path d="M400.27 188C400.91 188.7 403.11 187.74 405.83 187.48C408.55 187.22 410.9 187.56 411.37 186.74C411.57 186.34 411.15 185.62 410.08 185C408.662 184.244 407.044 183.947 405.45 184.15C403.853 184.305 402.345 184.959 401.14 186.02C400.24 186.89 400 187.69 400.27 188Z" fill="#263238"/>
<path d="M448.68 165.76L448.8 165.84C452.447 168.239 455.027 171.954 456 176.21L456.09 176.64C457.43 182.64 457.8 188.89 459.2 194.91C460.6 200.93 460.34 205.53 466.37 206.91C467.949 207.256 469.596 207.115 471.094 206.507C472.592 205.898 473.87 204.85 474.76 203.5C475.208 202.618 475.392 201.625 475.29 200.64C475.22 185.82 478.2 180.06 476.89 164.64C476.728 162.577 476.075 160.582 474.986 158.822C473.897 157.062 472.404 155.587 470.63 154.52C467.21 152.47 463.07 150.4 459.63 152.39C456.19 154.38 452.1 161.48 449.55 164.56" fill="#263238"/>
<path d="M467.43 197.57C467.79 197.39 481.77 192.01 482.52 206.68C483.27 221.35 468.38 219.06 468.34 218.68C468.3 218.3 467.43 197.57 467.43 197.57Z" fill="#FFBE9D"/>
<path d="M472.54 212.86C472.6 212.81 472.8 213.03 473.24 213.2C473.86 213.429 474.545 213.408 475.15 213.14C476.67 212.5 477.85 209.97 477.79 207.32C477.765 206.061 477.457 204.824 476.89 203.7C476.732 203.251 476.467 202.848 476.119 202.524C475.771 202.2 475.349 201.965 474.89 201.84C474.592 201.776 474.281 201.819 474.012 201.961C473.743 202.104 473.534 202.337 473.42 202.62C473.24 203.04 473.35 203.32 473.27 203.35C473.19 203.38 472.95 203.12 473.03 202.51C473.096 202.143 473.283 201.809 473.56 201.56C473.954 201.241 474.454 201.084 474.96 201.12C475.567 201.21 476.142 201.454 476.628 201.828C477.115 202.203 477.498 202.696 477.74 203.26C478.423 204.485 478.797 205.858 478.83 207.26C478.89 210.26 477.52 213.06 475.43 213.78C475.042 213.916 474.628 213.962 474.219 213.915C473.81 213.868 473.418 213.73 473.07 213.51C472.58 213.21 472.49 212.89 472.54 212.86Z" fill="#EB996E"/>
<path d="M459.97 154.724C463.048 148.603 452.629 141.047 445.318 139.375C438.006 137.703 428.909 141.993 422.022 144.959C417.671 146.831 413.389 149.289 408.663 149.479C405.495 149.618 402.387 148.712 399.319 147.896C396.25 147.08 393.073 146.343 389.935 146.831C386.798 147.318 383.69 149.269 382.743 152.325C381.795 155.381 383.828 159.293 386.995 159.453C382.822 157.571 377.276 160.956 377.01 165.564C376.744 170.173 381.825 174.205 386.196 172.861C384.015 171.457 381.075 174.314 381.549 176.843C382.022 179.371 384.509 181.103 386.926 181.949C393.172 184.109 400.118 182.676 406.176 180.038C412.234 177.4 417.73 173.627 423.719 170.84C429.708 168.053 439.723 163.116 446.097 164.798C450.794 166.042 454.425 171.328 456.95 169.885C458.115 169.121 459.085 168.094 459.784 166.883C460.484 165.673 460.892 164.315 460.976 162.917C461.096 160.127 460.763 157.336 459.989 154.655" fill="#263238"/>
<path d="M384.51 159.09C384.63 159.01 385.35 160.09 387.07 161.69C389.512 163.879 392.45 165.44 395.63 166.24C400.309 167.504 405.297 166.89 409.53 164.53C414.32 161.89 418.21 157.07 422.76 152.47C427.31 147.87 432.81 144.21 438.55 143.21C444.29 142.21 449.73 143.85 452.93 146.89C454.197 148.065 455.214 149.484 455.92 151.061C456.627 152.639 457.007 154.342 457.04 156.07C457.03 157.001 456.892 157.926 456.63 158.82C456.41 159.41 456.27 159.71 456.22 159.69C456.398 158.498 456.482 157.295 456.47 156.09C456.207 152.837 454.694 149.812 452.25 147.65C449.25 144.95 444.11 143.5 438.79 144.52C433.47 145.54 428.22 148.96 423.79 153.52C419.36 158.08 415.32 162.97 410.19 165.73C406.401 167.724 402.072 168.45 397.84 167.8C393.608 167.15 389.696 165.159 386.68 162.12C386.042 161.46 385.47 160.74 384.97 159.97C384.62 159.41 384.47 159.12 384.51 159.09Z" fill="#455A64"/>
<path d="M471.11 196.63C471.06 196.68 470.44 196.28 469.79 195.16C468.925 193.555 468.524 191.74 468.63 189.92C468.56 185.18 472.31 179.78 472.3 173.23C472.425 170.191 471.608 167.187 469.96 164.63C468.534 162.613 466.486 161.12 464.13 160.38C462.535 159.861 460.831 159.771 459.19 160.12C458.03 160.41 457.43 160.73 457.36 160.62C457.29 160.51 457.84 160.06 459.03 159.62C460.765 159.024 462.638 158.958 464.41 159.43C467.073 160.108 469.42 161.687 471.05 163.9C472.932 166.656 473.879 169.945 473.75 173.28C473.644 176.529 472.946 179.732 471.69 182.73C470.696 185.058 470.023 187.511 469.69 190.02C469.23 194.33 471.31 196.54 471.11 196.63Z" fill="#455A64"/>
<path d="M479.61 205.419L477.226 203.21C476.359 202.407 475.006 202.459 474.202 203.325L465.264 212.971C464.461 213.838 464.512 215.192 465.379 215.995L467.763 218.204C468.63 219.007 469.984 218.956 470.787 218.089L479.725 208.444C480.529 207.577 480.477 206.223 479.61 205.419Z" fill="#263238"/>
<path d="M562.06 332.17C562.06 332.17 562.06 332.37 562.12 332.76C562.18 333.15 562.19 333.76 562.25 334.48C562.36 336.01 562.51 338.26 562.72 341.18C563.12 347.06 563.72 355.65 564.43 366.54C565.14 377.43 566 390.62 567 405.69C567.24 409.457 567.493 413.34 567.76 417.34C567.91 419.34 567.99 421.34 568.08 423.44C568.135 424.476 568.135 425.514 568.08 426.55C568.078 427.602 568.021 428.654 567.91 429.7L567.52 432.88C567.29 433.93 567.06 434.99 566.84 436.05C566.62 437.11 566.18 438.13 565.84 439.18C565.5 440.23 565 441.23 564.46 442.18C562.36 446.07 559.09 449.71 554.55 451.18H554.49H456.66H425.66H425.32L425.41 450.85C426.36 447.47 427.3 444.13 428.23 440.8C428.703 439.14 429.167 437.473 429.62 435.8C430.127 434.187 430.515 432.539 430.78 430.87C431.26 427.574 430.966 424.212 429.92 421.05C429.434 419.499 428.638 418.064 427.58 416.83C426.559 415.607 425.145 414.777 423.58 414.48L421.53 414.16L423.53 413.99L460.48 410.89H460.37C462.68 409.187 465.502 408.323 468.37 408.44C471.108 408.586 473.763 409.433 476.08 410.9H475.91L507.24 405L507.1 405.24C506.745 404.042 506.564 402.799 506.56 401.55C506.523 400.359 506.556 399.167 506.66 397.98C506.837 395.709 507.154 393.452 507.61 391.22V391.34C505.1 386.65 502.8 382.34 500.67 378.4V378.34C500.18 366.81 500 357.72 500.09 351.52C500.09 348.42 500.24 346.04 500.4 344.44C500.445 343.834 500.535 343.232 500.67 342.64C500.76 342.24 500.81 342.04 500.81 342.04C500.81 342.04 500.81 342.25 500.71 342.65C500.592 343.244 500.516 343.845 500.48 344.45C500.34 346.05 500.25 348.45 500.24 351.52C500.24 357.72 500.42 366.81 500.95 378.33V378.27C503.08 382.22 505.4 386.5 507.95 391.18V391.24C507.497 393.472 507.18 395.73 507 398C506.9 399.177 506.87 400.359 506.91 401.54C506.917 402.752 507.096 403.958 507.44 405.12L507.5 405.32H507.3L475.98 411.32H475.9L475.82 411.27C473.571 409.853 470.995 409.04 468.34 408.91C465.588 408.803 462.882 409.639 460.67 411.28H460.61H460.55L423.61 414.42V413.93C425.298 414.232 426.827 415.117 427.93 416.43C429.031 417.718 429.86 419.214 430.37 420.83C431.445 424.065 431.75 427.506 431.26 430.88C430.996 432.574 430.605 434.245 430.09 435.88C429.63 437.533 429.167 439.2 428.7 440.88C427.767 444.213 426.83 447.547 425.89 450.88L425.64 450.55H456.64L554.47 450.62C556.598 449.893 558.536 448.697 560.14 447.12C561.726 445.575 563.059 443.789 564.09 441.83C564.62 440.83 565 439.83 565.45 438.83C565.9 437.83 566.13 436.77 566.45 435.74C566.77 434.71 566.9 433.65 567.13 432.61C567.36 431.57 567.39 430.5 567.52 429.46C567.635 428.424 567.695 427.382 567.7 426.34C567.755 425.311 567.755 424.279 567.7 423.25C567.61 421.2 567.54 419.18 567.39 417.18C567.143 413.18 566.897 409.293 566.65 405.52C565.65 390.45 564.86 377.25 564.17 366.35C563.48 355.45 562.96 346.87 562.59 340.99C562.42 338.07 562.28 335.81 562.19 334.28C562.19 333.53 562.12 332.96 562.1 332.56C562.08 332.16 562.06 332.17 562.06 332.17Z" fill="#263238"/>
<path d="M533.74 277.68C533.167 278.082 532.573 278.453 531.96 278.79C530.343 279.79 528.796 280.899 527.33 282.11C522.531 286.16 518.471 291.012 515.33 296.45C512.217 301.896 509.542 307.58 507.33 313.45L505.25 318.77L504.67 320.22C504.615 320.393 504.537 320.557 504.44 320.71C504.459 320.528 504.503 320.35 504.57 320.18C504.7 319.79 504.87 319.3 505.06 318.7C505.5 317.42 506.14 315.58 506.99 313.31C509.11 307.372 511.751 301.633 514.88 296.16C518.04 290.671 522.174 285.805 527.08 281.8C528.578 280.607 530.17 279.536 531.84 278.6C532.42 278.25 532.91 278.04 533.22 277.88C533.385 277.794 533.56 277.727 533.74 277.68Z" fill="#263238"/>
<g opacity="0.3">
<path d="M494.6 315.87C490.442 325.272 488.525 335.511 489 345.78C489.38 355.94 490.6 366.13 489.6 376.26C488.6 386.39 485.09 396.72 477.54 403.53C476.564 404.273 475.737 405.192 475.1 406.24C474.794 406.771 474.674 407.389 474.759 407.996C474.844 408.603 475.13 409.164 475.57 409.59C476.044 409.855 476.566 410.021 477.106 410.078C477.646 410.135 478.192 410.081 478.71 409.92C485.94 408.66 493.26 407.76 500.5 406.51C502.05 406.24 507.26 405.22 507.26 405.22C506.9 403.241 506.753 401.23 506.82 399.22C507.05 397.41 507.76 391.22 507.76 391.22C507.418 390.3 506.95 389.432 506.37 388.64C503.66 383.816 501.64 378.635 500.37 373.25C497.9 368.2 496.79 363.12 495.64 358.4C492.47 345.29 492.56 332.4 494.58 315.79" fill="black"/>
</g>
<g opacity="0.3">
<path d="M415.33 300.94C415.92 302.44 416.52 303.94 417.11 305.45C417.17 305.686 417.277 305.908 417.425 306.102C417.573 306.296 417.758 306.459 417.97 306.58C418.86 306.92 419.57 305.83 419.97 304.97C420.826 303.285 422.082 301.836 423.629 300.75C425.175 299.664 426.965 298.974 428.84 298.74C431.84 298.39 435 299.27 437.99 298.65C435.402 296.97 432.631 295.591 429.73 294.54C426.805 293.481 423.606 293.449 420.66 294.45C419.207 294.973 417.927 295.888 416.961 297.093C415.996 298.299 415.383 299.748 415.19 301.28" fill="black"/>
</g>
<g opacity="0.3">
<path d="M440.05 297.15C443.606 297.096 447.157 297.431 450.64 298.15C454.149 298.861 457.332 300.693 459.71 303.37C462.13 306.32 463.03 310.19 464.01 313.87C464.2 314.58 464.54 315.42 465.26 315.5C465.705 315.499 466.133 315.331 466.46 315.03C472.46 310.63 476.4 303.9 478.56 296.8C480.72 289.7 481.22 282.22 481.34 274.8C478.48 279.91 477.24 285.73 475.34 291.27C473.44 296.81 470.67 302.39 465.77 305.59C465.825 304.96 465.754 304.325 465.562 303.723C465.37 303.12 465.06 302.562 464.65 302.08C463.831 301.118 462.846 300.311 461.74 299.7C458.423 297.724 454.73 296.461 450.897 295.991C447.065 295.521 443.177 295.854 439.48 296.97" fill="black"/>
</g>
<path d="M424.51 414.94H412.26C412.26 414.94 384.63 404.94 378.95 405.94C373.83 406.8 355.1 419.24 351.43 421.71C351.021 421.982 350.709 422.378 350.54 422.84C350.177 423.815 350.208 424.892 350.626 425.844C351.045 426.796 351.817 427.548 352.78 427.94L353.16 428.1L353 428.66C352.776 429.385 352.678 430.142 352.71 430.9C352.76 431.467 352.988 432.004 353.361 432.434C353.735 432.864 354.235 433.164 354.789 433.293C355.344 433.422 355.925 433.372 356.45 433.15C356.974 432.929 357.415 432.547 357.71 432.06L357.01 433.32C356.718 433.83 356.583 434.414 356.62 435L356.68 436.13C356.714 436.75 356.934 437.346 357.313 437.838C357.691 438.331 358.21 438.697 358.8 438.89C359.363 439.064 359.963 439.073 360.531 438.915C361.098 438.757 361.608 438.44 362 438C364.38 435.39 369.51 430.16 373 429.58C376.762 429.125 380.551 428.935 384.34 429.01C385.112 429.013 385.865 429.249 386.502 429.686C387.139 430.123 387.629 430.741 387.91 431.46C385.85 431.61 371.49 439.1 366.41 441.78C365.623 442.171 364.943 442.748 364.429 443.46C363.915 444.173 363.583 445 363.46 445.87C363.27 447.46 364.07 449.12 367.22 448.39C373.97 446.81 386.12 441.23 386.12 441.23C386.12 441.23 392.38 439.44 396.44 442.3C402.15 446.3 404.77 447.81 409.67 446.18C412.652 445.174 415.511 443.832 418.19 442.18L427.85 441.18C427.85 441.18 437 418.44 424.51 414.94Z" fill="#FFBE9D"/>
<path d="M388 419.6C388 419.71 386 419.09 382.81 418.88C378.6 418.597 374.383 419.313 370.503 420.969C366.622 422.625 363.188 425.175 360.48 428.41C359.385 429.774 358.361 431.192 357.41 432.66C357.563 432.211 357.768 431.782 358.02 431.38C358.653 430.255 359.379 429.185 360.19 428.18C362.87 424.819 366.342 422.177 370.296 420.491C374.249 418.805 378.56 418.128 382.84 418.52C384.125 418.631 385.399 418.845 386.65 419.16C387.115 419.257 387.567 419.404 388 419.6Z" fill="#EB996E"/>
<path d="M385.1 412.89C382.095 411.949 378.917 411.696 375.802 412.15C372.686 412.604 369.712 413.752 367.1 415.51C363.371 417.91 359.975 420.791 357 424.08L354.22 427C353.902 427.369 353.547 427.704 353.16 428C353.432 427.584 353.737 427.189 354.07 426.82C354.68 426.08 355.58 425.03 356.73 423.76C359.666 420.363 363.078 417.409 366.86 414.99C370.707 412.589 375.177 411.378 379.71 411.51C381.07 411.579 382.415 411.828 383.71 412.25C384.051 412.36 384.385 412.49 384.71 412.64L385.1 412.89Z" fill="#EB996E"/>
<path d="M251.74 457.81L218.56 374.52C217.886 372.867 217.629 371.073 217.812 369.297C217.994 367.522 218.61 365.818 219.606 364.336C220.602 362.854 221.946 361.64 223.522 360.8C225.097 359.96 226.855 359.521 228.64 359.52H332C334.275 359.52 336.493 360.234 338.342 361.559C340.191 362.884 341.579 364.756 342.31 366.91L370.81 450.91L404.1 451.07C406.8 451.07 408.99 455.07 408.99 457.74L372.35 457.32L251.74 457.81Z" fill="#263238"/>
<path d="M299.52 412.09C299.522 413.42 299.13 414.72 298.392 415.826C297.655 416.933 296.606 417.795 295.379 418.306C294.151 418.816 292.799 418.95 291.495 418.692C290.191 418.434 288.993 417.795 288.052 416.855C287.111 415.916 286.47 414.719 286.21 413.415C285.95 412.111 286.082 410.759 286.591 409.531C287.099 408.302 287.96 407.252 289.066 406.513C290.171 405.774 291.47 405.38 292.8 405.38C294.581 405.38 296.288 406.087 297.548 407.345C298.808 408.603 299.517 410.309 299.52 412.09Z" fill="#F5F5F5"/>
<path d="M694.29 457.32C694.29 457.46 556.83 457.58 387.29 457.58C217.75 457.58 80.29 457.46 80.29 457.32C80.29 457.18 217.72 457.06 387.29 457.06C556.86 457.06 694.29 457.17 694.29 457.32Z" fill="#263238"/>
</svg>
