<svg width="296" height="284" viewBox="0 0 296 284" fill="none" xmlns="http://www.w3.org/2000/svg">
<path d="M96.6299 9.99999L1.43994 133.67L257.44 70.03L114.85 5.42999C111.744 4.02008 108.251 3.70435 104.942 4.5343C101.633 5.36425 98.7032 7.2909 96.6299 9.99999Z" fill="#EBEBEB"/>
<path d="M0.0899658 134.55L96.21 9.69C98.3535 6.88236 101.389 4.88819 104.817 4.03574C108.245 3.1833 111.861 3.52337 115.07 5L259.07 70.23L0.0899658 134.55ZM108.59 4.55C106.354 4.55151 104.149 5.07048 102.147 6.06628C100.145 7.06209 98.4002 8.50771 97.05 10.29L2.77997 132.8L255.84 69.89L114.64 5.89C112.739 5.0328 110.676 4.59293 108.59 4.6V4.55Z" fill="#E0E0E0"/>
<path d="M1.43323 133.674L258.335 69.8123L292.946 209.045C293.631 211.801 293.193 214.717 291.729 217.151C290.264 219.585 287.893 221.337 285.136 222.022L49.022 280.717C46.2654 281.402 43.3495 280.964 40.9158 279.5C38.482 278.035 36.7298 275.664 36.0446 272.907L1.43323 133.674Z" fill="#F0F0F0"/>
<path d="M242.52 77.44L153.52 168.37L18.9999 138.09L3.60995 66.74C2.75823 63.0596 3.38689 59.1918 5.36039 55.9706C7.3339 52.7494 10.4942 50.4327 14.16 49.52L208.76 1.15C210.595 0.692328 212.501 0.600976 214.371 0.881171C216.241 1.16137 218.038 1.8076 219.658 2.7829C221.278 3.75819 222.689 5.04339 223.812 6.56492C224.934 8.08645 225.746 9.81445 226.2 11.65L242.52 77.44Z" fill="white"/>
<path d="M141.3 161.22L35.61 271.66C35.9832 273.162 36.6486 274.576 37.5684 275.82C38.4881 277.065 39.644 278.116 40.9702 278.914C42.2963 279.711 43.7666 280.24 45.2971 280.469C46.8276 280.699 48.3883 280.624 49.89 280.25L284.19 222C287.221 221.246 289.829 219.319 291.44 216.644C293.05 213.968 293.533 210.761 292.78 207.73L292.56 206.85L154.36 158.1C152.114 157.306 149.686 157.178 147.369 157.732C145.052 158.285 142.945 159.497 141.3 161.22Z" fill="#E0E0E0"/>
<path d="M107.533 60.0536L31.4038 78.9926L33.3375 86.7656L109.467 67.8267L107.533 60.0536Z" fill="#E0E0E0"/>
<path d="M205.216 56.6795L36.3046 98.7L38.4894 107.482L207.401 65.4618L205.216 56.6795Z" fill="#E0E0E0"/>
<path d="M210.559 78.1356L41.6473 120.156L43.8321 128.938L212.744 86.918L210.559 78.1356Z" fill="#E0E0E0"/>
<path d="M214.11 106.57L208.82 111.86L67.02 148.93L48.49 144.6L47.79 142.59L216.16 100.71L216.89 103.62L214.11 106.57Z" fill="#E0E0E0"/>
<path d="M177.84 143.52L113.96 159.4L94.4299 154.94L189.9 131.19L177.84 143.52Z" fill="#E0E0E0"/>
<path d="M137.44 165.24C137.44 165.24 137.37 165.35 137.2 165.54L136.44 166.37L133.5 169.52L122.61 181.05C113.39 190.76 100.61 204.18 86.46 218.89C72.31 233.6 59.31 246.8 49.83 256.26C45.09 260.99 41.23 264.81 38.55 267.42L35.46 270.42L34.64 271.19C34.5545 271.285 34.457 271.369 34.35 271.44C34.4238 271.336 34.5076 271.238 34.6 271.15L35.38 270.34L38.38 267.27L49.55 256C58.96 246.47 71.89 233.24 86.07 218.52C100.25 203.8 113.07 190.52 122.32 180.79L133.32 169.38L136.32 166.3L137.12 165.51C137.34 165.32 137.44 165.24 137.44 165.24Z" fill="#FAFAFA"/>
<path d="M292.56 206.83C292.51 206.97 263.04 196.74 226.74 183.98C190.44 171.22 161.05 160.76 161.1 160.62C161.15 160.48 190.62 170.7 226.92 183.46C263.22 196.22 292.61 206.68 292.56 206.83Z" fill="#FAFAFA"/>
<path d="M246.75 73.06C246.695 73.1491 246.631 73.2328 246.56 73.31L246 74L243.63 76.63L234.8 86.22C227.32 94.29 216.9 105.35 205.22 117.42C193.54 129.49 182.76 140.26 174.94 148L165.63 157.12L163.07 159.57L162.4 160.2C162.24 160.34 162.16 160.41 162.15 160.4C162.213 160.315 162.284 160.234 162.36 160.16L162.99 159.49L165.48 156.97L174.66 147.73C182.42 139.92 193.09 129.1 204.77 117.04C216.45 104.98 226.91 94 234.47 86L243.42 76.53L245.87 73.97L246.52 73.31C246.586 73.2175 246.663 73.1335 246.75 73.06Z" fill="#FAFAFA"/>
<path d="M137.44 165.24C137.321 165.233 137.204 165.213 137.09 165.18L136.09 164.94L132.09 163.94C128.67 163.08 123.7 161.87 117.55 160.43C105.26 157.52 88.2099 153.77 69.3699 149.69C50.5299 145.61 33.4899 141.8 21.2199 138.79C15.0799 137.29 10.1199 136.03 6.70994 135.11L2.77994 134.04L1.77994 133.75C1.66184 133.725 1.54754 133.685 1.43994 133.63L1.78994 133.7L2.78994 133.93L6.78994 134.93C10.2199 135.79 15.1899 136.99 21.3399 138.44C33.6299 141.35 50.6699 145.1 69.5199 149.18C88.3699 153.26 105.4 157.07 117.67 160.08C123.81 161.58 128.77 162.83 132.18 163.76L136.1 164.83L137.1 165.12L137.44 165.24Z" fill="#FAFAFA"/>
<path d="M242.52 77.44C242.52 77.44 242.42 77.11 242.25 76.44L241.52 73.61C240.88 71.1 239.95 67.43 238.75 62.7L228.68 22.58C228.147 20.46 227.603 18.29 227.05 16.07C226.78 14.97 226.5 13.84 226.21 12.71C226.07 12.14 225.93 11.57 225.75 11.02C225.593 10.4585 225.393 9.91011 225.15 9.37999C224.159 7.13655 222.6 5.19024 220.627 3.73299C218.654 2.27575 216.336 1.35791 213.9 1.06999C212.636 0.895112 211.354 0.895112 210.09 1.06999C208.83 1.28999 207.55 1.63999 206.26 1.94999L198.41 3.94999L182 7.99999L109.09 26.2L36.09 44.32L19.7 48.38L15.7 49.38C14.4017 49.6497 13.13 50.0346 11.9 50.53C9.52759 51.5583 7.48076 53.2145 5.97997 55.32C5.25369 56.3432 4.66216 57.4557 4.21997 58.63C3.80762 59.79 3.53569 60.9953 3.40997 62.22C3.11997 64.67 3.79996 67.03 4.27996 69.36C5.27996 74.0267 6.23663 78.4967 7.14997 82.77C10.8 99.86 13.75 113.68 15.79 123.25C16.79 128.03 17.58 131.73 18.12 134.25C18.37 135.5 18.57 136.46 18.71 137.12C18.85 137.78 18.89 138.12 18.89 138.12C18.89 138.12 18.8 137.79 18.65 137.12C18.5 136.45 18.29 135.51 18.01 134.27C17.45 131.74 16.64 128.04 15.59 123.27C13.5 113.71 10.49 99.89 6.76996 82.83C5.84996 78.56 4.86997 74.09 3.85997 69.42C3.37997 67.12 2.67997 64.68 2.97997 62.15C3.09494 60.8836 3.37048 59.6369 3.79997 58.44C4.25682 57.2283 4.86497 56.0792 5.60997 55.02C6.36762 53.9419 7.27316 52.9758 8.29997 52.15C9.32816 51.2927 10.4772 50.5918 11.71 50.07C12.9612 49.5593 14.2566 49.1643 15.58 48.89L19.58 47.89L36 43.83L109 25.67L182 7.54999L198.39 3.48999L206.24 1.54999C207.53 1.22999 208.79 0.889991 210.11 0.659991C212.038 0.372076 214.003 0.47141 215.892 0.952182C217.781 1.43295 219.555 2.28551 221.11 3.45999C223.089 4.95805 224.652 6.93746 225.65 9.20999C225.901 9.75612 226.108 10.3212 226.27 10.9C226.45 11.47 226.59 12.04 226.73 12.61C227.01 13.74 227.28 14.87 227.56 15.98C228.11 18.2 228.64 20.37 229.17 22.49L239.07 62.68C240.22 67.42 241.12 71.1 241.73 73.61C242.03 74.86 242.26 75.81 242.41 76.46C242.56 77.11 242.52 77.44 242.52 77.44Z" fill="#E0E0E0"/>
<g clip-path="url(#clip0_4_4)">
<path d="M188.172 14.3758L160.746 21.5739C158.971 22.0398 157.917 23.8842 158.392 25.6936L165.558 52.9947C166.032 54.8041 167.856 55.8932 169.631 55.4273L197.057 48.2292C198.832 47.7633 199.886 45.9189 199.411 44.1095L192.245 16.8084C191.771 14.999 189.947 13.9099 188.172 14.3758Z" fill="#263238"/>
<path d="M185.788 45.0891C184.398 45.4538 183.369 45.4052 182.7 44.9431C182.032 44.481 181.541 43.6536 181.228 42.4608L179.511 35.919L177.262 36.5093L176.631 34.105L177.783 33.8027C178.131 33.7116 178.363 33.5909 178.48 33.4406C178.615 33.2856 178.675 33.0308 178.66 32.6761L178.423 29.5408L181.221 28.8066L182.226 32.6366L187.931 31.1394L188.562 33.5437L182.857 35.0409L184.581 41.6106C184.704 42.0765 184.894 42.3552 185.153 42.4468C185.411 42.5384 185.76 42.5265 186.199 42.4113L190.066 41.3964L190.898 43.4491C190.528 43.6058 189.96 43.8247 189.194 44.1055C188.422 44.3677 187.57 44.6212 186.638 44.866L185.788 45.0891Z" fill="#FFFDFD"/>
<path d="M186.143 29.8213L184.643 30.215L186.191 36.112L187.69 35.7184L186.143 29.8213Z" fill="#263238"/>
</g>
<defs>
<clipPath id="clip0_4_4">
<rect width="35" height="35" fill="white" transform="translate(157.532 22.4174) rotate(-14.7062)"/>
</clipPath>
</defs>
</svg>
