<svg width="392" height="345" viewBox="0 0 392 345" fill="none" xmlns="http://www.w3.org/2000/svg">
<path d="M254.271 42.401C264.441 36.271 279.081 33.921 291.341 33.531C303.601 33.141 316.331 35.661 327.831 40.041C339.331 44.411 351.411 51.851 360.341 59.791C369.261 67.721 376.271 76.851 381.381 87.661C386.491 98.471 390.381 112.561 391.001 124.651C391.621 136.741 389.521 149.021 385.111 160.191C380.701 171.361 372.941 182.881 364.551 191.651C356.161 200.431 345.821 207.891 334.771 212.821C323.711 217.761 310.431 220.991 298.241 221.271C286.051 221.551 273.041 218.581 261.601 214.501C250.171 210.431 238.861 204.771 229.641 196.841C220.421 188.911 211.441 177.731 206.281 166.901C201.121 156.071 198.961 143.951 198.681 131.861C198.401 119.771 200.551 105.601 204.591 94.371C208.641 83.141 213.051 73.791 222.981 64.461C232.911 55.141 255.511 42.851 264.171 38.431C272.841 34.011 274.451 36.401 274.951 37.921M319.341 37.031C331.111 38.471 342.841 46.001 352.701 53.561C362.551 61.121 372.191 71.971 378.461 82.391C384.721 92.801 388.851 104.221 390.261 116.041C391.681 127.851 390.201 141.831 386.961 153.281C383.721 164.721 378.481 175.271 370.831 184.691C363.171 194.111 351.801 203.981 341.011 209.791C330.231 215.601 318.291 218.471 306.141 219.531C293.981 220.581 280.081 219.191 268.091 216.111C256.111 213.031 243.921 208.181 234.241 201.051C224.561 193.921 215.861 183.871 210.001 173.351C204.131 162.821 200.341 149.601 199.051 137.881C197.771 126.171 199.051 114.241 202.291 103.061C205.531 91.871 211.061 80.301 218.491 70.751C225.921 61.201 236.211 51.751 246.871 45.751C257.541 39.751 270.411 36.021 282.491 34.741C294.571 33.461 313.401 37.081 319.351 38.061C325.291 39.051 318.671 38.991 318.171 40.671" fill="#FFC9C9"/>
<path d="M336.221 43.181C347.171 46.921 358.101 57.371 366.301 66.571C374.501 75.781 381.461 87.261 385.421 98.401C389.381 109.541 390.711 121.781 390.071 133.421C389.441 145.051 387.091 157.331 381.601 168.191C376.111 179.041 366.521 190.561 357.121 198.531C347.711 206.501 336.681 212.221 325.161 216.011C313.641 219.811 300.071 221.931 287.991 221.271C275.921 220.621 263.511 217.271 252.701 212.081C241.901 206.901 231.441 199.081 223.181 190.151C214.911 181.221 207.281 169.921 203.111 158.531C198.941 147.131 197.461 133.711 198.161 121.771C198.871 109.831 202.081 97.661 207.351 86.881C212.621 76.101 220.551 65.111 229.781 57.091C239.011 49.061 250.861 42.371 262.731 38.721C274.601 35.081 288.121 34.081 301.011 35.211C313.891 36.331 333.331 43.261 340.041 45.491C346.761 47.711 342.251 47.281 341.281 48.551M300.691 34.901C312.671 34.001 327.121 38.551 338.151 43.531C349.181 48.521 359.051 55.731 366.881 64.801C374.701 73.871 381.391 86.681 385.101 97.961C388.811 109.251 389.851 120.571 389.121 132.531C388.391 144.481 385.951 158.871 380.741 169.721C375.531 180.561 367.281 189.951 357.871 197.611C348.461 205.261 335.831 211.651 324.271 215.681C312.711 219.701 300.531 222.331 288.521 221.761C276.521 221.181 263.551 217.631 252.251 212.231C240.961 206.831 228.941 198.411 220.751 189.361C212.561 180.311 206.741 169.001 203.131 157.911C199.521 146.821 198.191 134.921 199.101 122.821C200.001 110.721 203.241 96.071 208.531 85.311C213.821 74.551 221.731 66.121 230.831 58.271C239.921 50.421 251.541 41.951 263.121 38.221C274.701 34.491 294.091 36.421 300.291 35.911C306.501 35.391 300.411 33.561 300.351 35.121" stroke="#1E1E1E" stroke-linecap="round"/>
<path d="M244.44 106.835V92.2895H249.355C250.491 92.2895 251.424 92.4836 252.153 92.8719C252.882 93.2554 253.422 93.7834 253.772 94.4557C254.123 95.128 254.298 95.8927 254.298 96.7497C254.298 97.6067 254.123 98.3667 253.772 99.0296C253.422 99.6924 252.885 100.213 252.16 100.592C251.436 100.966 250.51 101.153 249.383 101.153H245.406V99.5622H249.326C250.103 99.5622 250.728 99.4486 251.201 99.2213C251.68 98.9941 252.025 98.6721 252.238 98.2554C252.456 97.834 252.565 97.3321 252.565 96.7497C252.565 96.1673 252.456 95.6584 252.238 95.2227C252.021 94.7871 251.673 94.451 251.194 94.2142C250.716 93.9727 250.084 93.852 249.298 93.852H246.201V106.835H244.44ZM251.287 100.301L254.866 106.835H252.821L249.298 100.301H251.287ZM261.462 107.062C260.411 107.062 259.505 106.83 258.742 106.366C257.985 105.897 257.4 105.244 256.988 104.406C256.581 103.563 256.377 102.583 256.377 101.466C256.377 100.348 256.581 99.3634 256.988 98.5111C257.4 97.6541 257.973 96.9865 258.707 96.5083C259.445 96.0253 260.307 95.7838 261.292 95.7838C261.86 95.7838 262.421 95.8785 262.975 96.0679C263.529 96.2573 264.033 96.5651 264.488 96.9912C264.943 97.4126 265.305 97.9713 265.575 98.6673C265.845 99.3634 265.979 100.22 265.979 101.238V101.949H257.57V100.5H264.275C264.275 99.8842 264.152 99.335 263.906 98.852C263.664 98.3691 263.319 97.9879 262.869 97.7085C262.424 97.4292 261.898 97.2895 261.292 97.2895C260.624 97.2895 260.047 97.4552 259.559 97.7867C259.076 98.1134 258.704 98.5395 258.444 99.0651C258.184 99.5906 258.053 100.154 258.053 100.755V101.721C258.053 102.545 258.195 103.244 258.479 103.816C258.768 104.385 259.168 104.818 259.68 105.116C260.191 105.41 260.785 105.557 261.462 105.557C261.903 105.557 262.301 105.495 262.656 105.372C263.015 105.244 263.326 105.055 263.586 104.804C263.846 104.548 264.048 104.231 264.19 103.852L265.809 104.307C265.639 104.856 265.352 105.339 264.95 105.755C264.547 106.167 264.05 106.489 263.458 106.721C262.866 106.949 262.201 107.062 261.462 107.062ZM276.256 98.3691L274.751 98.7952C274.656 98.5442 274.516 98.3004 274.332 98.0637C274.152 97.8222 273.906 97.6233 273.593 97.4671C273.281 97.3108 272.881 97.2327 272.393 97.2327C271.725 97.2327 271.169 97.3866 270.724 97.6943C270.283 97.9974 270.063 98.3833 270.063 98.852C270.063 99.2687 270.215 99.5977 270.518 99.8392C270.821 100.081 271.294 100.282 271.938 100.443L273.558 100.841C274.533 101.077 275.26 101.44 275.738 101.927C276.216 102.41 276.455 103.033 276.455 103.795C276.455 104.42 276.275 104.979 275.916 105.471C275.56 105.964 275.063 106.352 274.424 106.636C273.785 106.92 273.042 107.062 272.194 107.062C271.081 107.062 270.16 106.821 269.431 106.338C268.702 105.855 268.24 105.149 268.046 104.221L269.637 103.824C269.789 104.411 270.075 104.851 270.497 105.145C270.923 105.438 271.479 105.585 272.166 105.585C272.947 105.585 273.567 105.419 274.026 105.088C274.49 104.752 274.722 104.349 274.722 103.88C274.722 103.502 274.59 103.184 274.325 102.929C274.06 102.668 273.652 102.474 273.103 102.346L271.285 101.92C270.286 101.683 269.552 101.316 269.083 100.819C268.619 100.317 268.387 99.6901 268.387 98.9372C268.387 98.3217 268.56 97.7772 268.906 97.3037C269.256 96.8302 269.732 96.4585 270.333 96.1887C270.939 95.9188 271.626 95.7838 272.393 95.7838C273.472 95.7838 274.32 96.0206 274.935 96.4941C275.556 96.9675 275.996 97.5925 276.256 98.3691ZM278.978 106.835V95.9259H280.655V106.835H278.978ZM279.831 94.1077C279.504 94.1077 279.222 93.9964 278.986 93.7739C278.754 93.5513 278.638 93.2838 278.638 92.9713C278.638 92.6588 278.754 92.3913 278.986 92.1688C279.222 91.9462 279.504 91.835 279.831 91.835C280.157 91.835 280.437 91.9462 280.669 92.1688C280.906 92.3913 281.024 92.6588 281.024 92.9713C281.024 93.2838 280.906 93.5513 280.669 93.7739C280.437 93.9964 280.157 94.1077 279.831 94.1077ZM287.844 107.062C286.935 107.062 286.132 106.833 285.436 106.373C284.74 105.909 284.196 105.256 283.803 104.413C283.41 103.566 283.213 102.564 283.213 101.409C283.213 100.263 283.41 99.2687 283.803 98.4259C284.196 97.5831 284.743 96.932 285.443 96.4727C286.144 96.0135 286.954 95.7838 287.872 95.7838C288.582 95.7838 289.144 95.9022 289.555 96.1389C289.972 96.3709 290.289 96.6361 290.507 96.9344C290.73 97.228 290.903 97.4694 291.026 97.6588H291.168V92.2895H292.844V106.835H291.225V105.159H291.026C290.903 105.358 290.727 105.609 290.5 105.912C290.273 106.21 289.948 106.477 289.527 106.714C289.106 106.946 288.545 107.062 287.844 107.062ZM288.071 105.557C288.743 105.557 289.312 105.381 289.776 105.031C290.24 104.676 290.592 104.186 290.834 103.561C291.075 102.931 291.196 102.204 291.196 101.38C291.196 100.566 291.078 99.8534 290.841 99.2426C290.604 98.6271 290.254 98.1489 289.79 97.808C289.326 97.4623 288.753 97.2895 288.071 97.2895C287.361 97.2895 286.769 97.4718 286.296 97.8364C285.827 98.1962 285.474 98.6863 285.237 99.3066C285.005 99.9221 284.889 100.613 284.889 101.38C284.889 102.157 285.008 102.862 285.244 103.497C285.486 104.127 285.841 104.629 286.31 105.003C286.783 105.372 287.37 105.557 288.071 105.557ZM300.72 107.062C299.669 107.062 298.762 106.83 298 106.366C297.243 105.897 296.658 105.244 296.246 104.406C295.839 103.563 295.635 102.583 295.635 101.466C295.635 100.348 295.839 99.3634 296.246 98.5111C296.658 97.6541 297.231 96.9865 297.965 96.5083C298.703 96.0253 299.565 95.7838 300.55 95.7838C301.118 95.7838 301.679 95.8785 302.233 96.0679C302.787 96.2573 303.291 96.5651 303.746 96.9912C304.2 97.4126 304.563 97.9713 304.832 98.6673C305.102 99.3634 305.237 100.22 305.237 101.238V101.949H296.828V100.5H303.533C303.533 99.8842 303.41 99.335 303.163 98.852C302.922 98.3691 302.576 97.9879 302.127 97.7085C301.681 97.4292 301.156 97.2895 300.55 97.2895C299.882 97.2895 299.305 97.4552 298.817 97.7867C298.334 98.1134 297.962 98.5395 297.702 99.0651C297.441 99.5906 297.311 100.154 297.311 100.755V101.721C297.311 102.545 297.453 103.244 297.737 103.816C298.026 104.385 298.426 104.818 298.938 105.116C299.449 105.41 300.043 105.557 300.72 105.557C301.161 105.557 301.558 105.495 301.913 105.372C302.273 105.244 302.583 105.055 302.844 104.804C303.104 104.548 303.305 104.231 303.448 103.852L305.067 104.307C304.896 104.856 304.61 105.339 304.207 105.755C303.805 106.167 303.308 106.489 302.716 106.721C302.124 106.949 301.459 107.062 300.72 107.062ZM309.463 100.272V106.835H307.787V95.9259H309.406V97.6304H309.548C309.804 97.0764 310.192 96.6314 310.713 96.2952C311.234 95.9543 311.906 95.7838 312.73 95.7838C313.469 95.7838 314.115 95.9353 314.669 96.2384C315.223 96.5367 315.654 96.9912 315.962 97.602C316.27 98.2081 316.423 98.9751 316.423 99.9031V106.835H314.747V100.017C314.747 99.1598 314.525 98.4922 314.08 98.0139C313.635 97.531 313.024 97.2895 312.247 97.2895C311.712 97.2895 311.234 97.4055 310.813 97.6375C310.396 97.8695 310.067 98.2081 309.825 98.6531C309.584 99.0982 309.463 99.638 309.463 100.272ZM324.231 95.9259V97.3463H318.577V95.9259H324.231ZM320.225 93.3122H321.901V103.71C321.901 104.183 321.97 104.539 322.107 104.775C322.249 105.007 322.429 105.164 322.647 105.244C322.869 105.32 323.104 105.358 323.35 105.358C323.535 105.358 323.686 105.348 323.804 105.329C323.923 105.306 324.017 105.287 324.089 105.272L324.429 106.778C324.316 106.821 324.157 106.863 323.954 106.906C323.75 106.953 323.492 106.977 323.179 106.977C322.706 106.977 322.242 106.875 321.787 106.672C321.338 106.468 320.964 106.158 320.665 105.741C320.372 105.325 320.225 104.799 320.225 104.165V93.3122ZM326.752 106.835V95.9259H328.428V106.835H326.752ZM327.604 94.1077C327.277 94.1077 326.996 93.9964 326.759 93.7739C326.527 93.5513 326.411 93.2838 326.411 92.9713C326.411 92.6588 326.527 92.3913 326.759 92.1688C326.996 91.9462 327.277 91.835 327.604 91.835C327.931 91.835 328.21 91.9462 328.442 92.1688C328.679 92.3913 328.797 92.6588 328.797 92.9713C328.797 93.2838 328.679 93.5513 328.442 93.7739C328.21 93.9964 327.931 94.1077 327.604 94.1077ZM334.708 107.091C334.017 107.091 333.39 106.96 332.826 106.7C332.263 106.435 331.815 106.054 331.484 105.557C331.152 105.055 330.987 104.449 330.987 103.738C330.987 103.113 331.11 102.607 331.356 102.218C331.602 101.825 331.931 101.518 332.343 101.295C332.755 101.073 333.21 100.907 333.707 100.798C334.209 100.684 334.713 100.594 335.22 100.528C335.882 100.443 336.42 100.379 336.832 100.336C337.248 100.289 337.551 100.211 337.741 100.102C337.935 99.9931 338.032 99.8037 338.032 99.5338V99.477C338.032 98.7762 337.84 98.2317 337.457 97.8435C337.078 97.4552 336.503 97.2611 335.731 97.2611C334.931 97.2611 334.303 97.4363 333.849 97.7867C333.394 98.137 333.075 98.5111 332.89 98.9088L331.299 98.3406C331.583 97.6778 331.962 97.1617 332.435 96.7923C332.914 96.4183 333.435 96.1579 333.998 96.0111C334.566 95.8596 335.125 95.7838 335.674 95.7838C336.024 95.7838 336.427 95.8264 336.881 95.9117C337.341 95.9922 337.783 96.1602 338.21 96.4159C338.64 96.6716 338.998 97.0575 339.282 97.5736C339.566 98.0897 339.708 98.781 339.708 99.6475V106.835H338.032V105.358H337.947C337.833 105.594 337.644 105.848 337.379 106.118C337.113 106.388 336.761 106.617 336.32 106.807C335.88 106.996 335.343 107.091 334.708 107.091ZM334.964 105.585C335.627 105.585 336.185 105.455 336.64 105.194C337.099 104.934 337.445 104.598 337.677 104.186C337.914 103.774 338.032 103.341 338.032 102.886V101.352C337.961 101.437 337.805 101.515 337.563 101.586C337.327 101.653 337.052 101.712 336.739 101.764C336.432 101.811 336.131 101.854 335.837 101.892C335.549 101.925 335.314 101.953 335.134 101.977C334.699 102.034 334.292 102.126 333.913 102.254C333.539 102.377 333.236 102.564 333.004 102.815C332.776 103.061 332.663 103.397 332.663 103.824C332.663 104.406 332.878 104.846 333.309 105.145C333.745 105.438 334.296 105.585 334.964 105.585ZM344.444 92.2895V106.835H342.767V92.2895H344.444Z" fill="#1E1E1E"/>
<path d="M238.317 131.835V117.29H240.078V123.767H247.834V117.29H249.595V131.835H247.834V125.329H240.078V131.835H238.317ZM253.718 117.29L258.036 129.534H258.207L262.525 117.29H264.372L259.031 131.835H257.213L251.872 117.29H253.718ZM265.984 131.835H264.137L269.478 117.29H271.296L276.637 131.835H274.791L270.444 119.591H270.331L265.984 131.835ZM266.666 126.153H274.109V127.716H266.666V126.153ZM289.924 121.835H288.163C288.058 121.328 287.876 120.883 287.616 120.5C287.36 120.116 287.047 119.794 286.678 119.534C286.314 119.269 285.909 119.07 285.464 118.937C285.019 118.805 284.555 118.738 284.072 118.738C283.191 118.738 282.393 118.961 281.678 119.406C280.968 119.851 280.402 120.507 279.981 121.373C279.564 122.24 279.356 123.303 279.356 124.562C279.356 125.822 279.564 126.885 279.981 127.751C280.402 128.618 280.968 129.273 281.678 129.718C282.393 130.164 283.191 130.386 284.072 130.386C284.555 130.386 285.019 130.32 285.464 130.187C285.909 130.055 286.314 129.858 286.678 129.598C287.047 129.333 287.36 129.008 287.616 128.625C287.876 128.236 288.058 127.791 288.163 127.29H289.924C289.791 128.033 289.55 128.698 289.199 129.285C288.849 129.872 288.414 130.372 287.893 130.784C287.372 131.191 286.787 131.501 286.138 131.714C285.494 131.927 284.806 132.034 284.072 132.034C282.831 132.034 281.728 131.731 280.762 131.125C279.796 130.519 279.036 129.657 278.482 128.54C277.928 127.422 277.651 126.096 277.651 124.562C277.651 123.028 277.928 121.702 278.482 120.585C279.036 119.468 279.796 118.606 280.762 118C281.728 117.394 282.831 117.091 284.072 117.091C284.806 117.091 285.494 117.197 286.138 117.41C286.787 117.623 287.372 117.936 287.893 118.348C288.414 118.755 288.849 119.252 289.199 119.839C289.55 120.422 289.791 121.087 289.924 121.835ZM300.157 117.29V131.835H298.395V117.29H300.157ZM305.137 125.272V131.835H303.461V120.926H305.08V122.63H305.222C305.478 122.076 305.866 121.631 306.387 121.295C306.908 120.954 307.58 120.784 308.404 120.784C309.143 120.784 309.789 120.935 310.343 121.238C310.897 121.537 311.328 121.991 311.636 122.602C311.943 123.208 312.097 123.975 312.097 124.903V131.835H310.421V125.017C310.421 124.16 310.199 123.492 309.753 123.014C309.308 122.531 308.698 122.29 307.921 122.29C307.386 122.29 306.908 122.406 306.486 122.638C306.07 122.87 305.741 123.208 305.499 123.653C305.258 124.098 305.137 124.638 305.137 125.272ZM322.887 123.369L321.382 123.795C321.287 123.544 321.147 123.3 320.963 123.064C320.783 122.822 320.536 122.623 320.224 122.467C319.911 122.311 319.511 122.233 319.024 122.233C318.356 122.233 317.8 122.387 317.355 122.694C316.914 122.997 316.694 123.383 316.694 123.852C316.694 124.269 316.846 124.598 317.149 124.839C317.452 125.081 317.925 125.282 318.569 125.443L320.188 125.841C321.164 126.077 321.891 126.44 322.369 126.927C322.847 127.41 323.086 128.033 323.086 128.795C323.086 129.42 322.906 129.979 322.546 130.471C322.191 130.964 321.694 131.352 321.055 131.636C320.416 131.92 319.672 132.062 318.825 132.062C317.712 132.062 316.791 131.821 316.062 131.338C315.333 130.855 314.871 130.149 314.677 129.221L316.268 128.824C316.42 129.411 316.706 129.851 317.127 130.145C317.554 130.438 318.11 130.585 318.796 130.585C319.578 130.585 320.198 130.419 320.657 130.088C321.121 129.752 321.353 129.349 321.353 128.88C321.353 128.502 321.221 128.184 320.956 127.929C320.69 127.668 320.283 127.474 319.734 127.346L317.916 126.92C316.917 126.683 316.183 126.316 315.714 125.819C315.25 125.317 315.018 124.69 315.018 123.937C315.018 123.322 315.191 122.777 315.536 122.304C315.887 121.83 316.363 121.459 316.964 121.189C317.57 120.919 318.257 120.784 319.024 120.784C320.103 120.784 320.951 121.021 321.566 121.494C322.187 121.968 322.627 122.593 322.887 123.369ZM330.354 120.926V122.346H324.7V120.926H330.354ZM326.348 118.312H328.024V128.71C328.024 129.183 328.093 129.539 328.23 129.775C328.372 130.007 328.552 130.164 328.77 130.244C328.992 130.32 329.227 130.358 329.473 130.358C329.658 130.358 329.809 130.348 329.927 130.329C330.046 130.306 330.141 130.287 330.212 130.272L330.552 131.778C330.439 131.821 330.28 131.863 330.077 131.906C329.873 131.953 329.615 131.977 329.302 131.977C328.829 131.977 328.365 131.875 327.91 131.672C327.461 131.468 327.087 131.158 326.788 130.741C326.495 130.325 326.348 129.799 326.348 129.165V118.312ZM336.085 132.091C335.394 132.091 334.766 131.96 334.203 131.7C333.64 131.435 333.192 131.054 332.861 130.557C332.529 130.055 332.364 129.449 332.364 128.738C332.364 128.113 332.487 127.607 332.733 127.218C332.979 126.825 333.308 126.518 333.72 126.295C334.132 126.073 334.587 125.907 335.084 125.798C335.586 125.684 336.09 125.594 336.597 125.528C337.259 125.443 337.797 125.379 338.209 125.336C338.625 125.289 338.928 125.211 339.118 125.102C339.312 124.993 339.409 124.804 339.409 124.534V124.477C339.409 123.776 339.217 123.232 338.834 122.843C338.455 122.455 337.88 122.261 337.108 122.261C336.308 122.261 335.68 122.436 335.226 122.787C334.771 123.137 334.452 123.511 334.267 123.909L332.676 123.341C332.96 122.678 333.339 122.162 333.812 121.792C334.291 121.418 334.811 121.158 335.375 121.011C335.943 120.86 336.502 120.784 337.051 120.784C337.401 120.784 337.804 120.826 338.258 120.912C338.718 120.992 339.16 121.16 339.587 121.416C340.017 121.672 340.375 122.057 340.659 122.574C340.943 123.09 341.085 123.781 341.085 124.647V131.835H339.409V130.358H339.324C339.21 130.594 339.021 130.848 338.756 131.118C338.49 131.388 338.138 131.617 337.697 131.807C337.257 131.996 336.72 132.091 336.085 132.091ZM336.341 130.585C337.004 130.585 337.562 130.455 338.017 130.194C338.476 129.934 338.822 129.598 339.054 129.186C339.291 128.774 339.409 128.341 339.409 127.886V126.352C339.338 126.437 339.182 126.515 338.94 126.586C338.704 126.653 338.429 126.712 338.116 126.764C337.809 126.811 337.508 126.854 337.214 126.892C336.926 126.925 336.691 126.953 336.511 126.977C336.076 127.034 335.668 127.126 335.29 127.254C334.916 127.377 334.613 127.564 334.381 127.815C334.153 128.061 334.04 128.397 334.04 128.824C334.04 129.406 334.255 129.846 334.686 130.145C335.122 130.438 335.673 130.585 336.341 130.585ZM345.821 117.29V131.835H344.144V117.29H345.821ZM350.567 117.29V131.835H348.891V117.29H350.567Z" fill="#1E1E1E"/>
<path d="M244.69 143.852V142.29H255.599V143.852H251.025V156.835H249.263V143.852H244.69ZM261.082 157.062C260.03 157.062 259.124 156.83 258.361 156.366C257.604 155.897 257.019 155.244 256.607 154.406C256.2 153.563 255.996 152.583 255.996 151.466C255.996 150.348 256.2 149.363 256.607 148.511C257.019 147.654 257.592 146.986 258.326 146.508C259.065 146.025 259.926 145.784 260.911 145.784C261.479 145.784 262.04 145.879 262.594 146.068C263.148 146.257 263.653 146.565 264.107 146.991C264.562 147.413 264.924 147.971 265.194 148.667C265.464 149.363 265.599 150.22 265.599 151.238V151.949H257.19V150.5H263.894C263.894 149.884 263.771 149.335 263.525 148.852C263.283 148.369 262.938 147.988 262.488 147.709C262.043 147.429 261.517 147.29 260.911 147.29C260.244 147.29 259.666 147.455 259.178 147.787C258.695 148.113 258.324 148.54 258.063 149.065C257.803 149.591 257.672 150.154 257.672 150.755V151.721C257.672 152.545 257.815 153.244 258.099 153.816C258.387 154.385 258.788 154.818 259.299 155.116C259.81 155.41 260.405 155.557 261.082 155.557C261.522 155.557 261.92 155.495 262.275 155.372C262.635 155.244 262.945 155.055 263.205 154.804C263.466 154.548 263.667 154.231 263.809 153.852L265.428 154.307C265.258 154.856 264.971 155.339 264.569 155.755C264.166 156.167 263.669 156.489 263.077 156.721C262.485 156.949 261.82 157.062 261.082 157.062ZM272.58 157.062C271.557 157.062 270.677 156.821 269.938 156.338C269.199 155.855 268.631 155.19 268.234 154.342C267.836 153.495 267.637 152.526 267.637 151.437C267.637 150.329 267.841 149.352 268.248 148.504C268.66 147.652 269.233 146.986 269.967 146.508C270.705 146.025 271.567 145.784 272.552 145.784C273.319 145.784 274.01 145.926 274.626 146.21C275.241 146.494 275.745 146.892 276.138 147.403C276.531 147.915 276.775 148.511 276.87 149.193H275.194C275.066 148.696 274.782 148.255 274.342 147.872C273.906 147.484 273.319 147.29 272.58 147.29C271.927 147.29 271.354 147.46 270.861 147.801C270.374 148.137 269.993 148.613 269.718 149.228C269.448 149.839 269.313 150.557 269.313 151.38C269.313 152.223 269.446 152.957 269.711 153.582C269.981 154.207 270.36 154.692 270.847 155.038C271.34 155.384 271.917 155.557 272.58 155.557C273.016 155.557 273.411 155.481 273.766 155.329C274.121 155.178 274.422 154.96 274.668 154.676C274.914 154.392 275.09 154.051 275.194 153.653H276.87C276.775 154.297 276.541 154.877 276.167 155.393C275.797 155.905 275.307 156.312 274.697 156.615C274.091 156.913 273.385 157.062 272.58 157.062ZM280.996 150.272V156.835H279.32V142.29H280.996V147.63H281.138C281.394 147.067 281.778 146.62 282.289 146.288C282.805 145.952 283.492 145.784 284.349 145.784C285.092 145.784 285.743 145.933 286.302 146.231C286.86 146.525 287.294 146.977 287.601 147.588C287.914 148.194 288.07 148.966 288.07 149.903V156.835H286.394V150.017C286.394 149.15 286.169 148.48 285.719 148.007C285.274 147.529 284.656 147.29 283.866 147.29C283.316 147.29 282.824 147.406 282.388 147.638C281.958 147.87 281.617 148.208 281.366 148.653C281.119 149.098 280.996 149.638 280.996 150.272ZM292.813 150.272V156.835H291.137V145.926H292.756V147.63H292.898C293.154 147.076 293.542 146.631 294.063 146.295C294.584 145.954 295.256 145.784 296.08 145.784C296.818 145.784 297.465 145.935 298.019 146.238C298.573 146.537 299.004 146.991 299.311 147.602C299.619 148.208 299.773 148.975 299.773 149.903V156.835H298.097V150.017C298.097 149.16 297.874 148.492 297.429 148.014C296.984 147.531 296.373 147.29 295.597 147.29C295.062 147.29 294.584 147.406 294.162 147.638C293.746 147.87 293.416 148.208 293.175 148.653C292.934 149.098 292.813 149.638 292.813 150.272ZM302.836 156.835V145.926H304.512V156.835H302.836ZM303.688 144.108C303.361 144.108 303.08 143.996 302.843 143.774C302.611 143.551 302.495 143.284 302.495 142.971C302.495 142.659 302.611 142.391 302.843 142.169C303.08 141.946 303.361 141.835 303.688 141.835C304.015 141.835 304.294 141.946 304.526 142.169C304.763 142.391 304.881 142.659 304.881 142.971C304.881 143.284 304.763 143.551 304.526 143.774C304.294 143.996 304.015 144.108 303.688 144.108ZM312.014 157.062C310.991 157.062 310.11 156.821 309.372 156.338C308.633 155.855 308.065 155.19 307.667 154.342C307.269 153.495 307.071 152.526 307.071 151.437C307.071 150.329 307.274 149.352 307.681 148.504C308.093 147.652 308.666 146.986 309.4 146.508C310.139 146.025 311.001 145.784 311.985 145.784C312.752 145.784 313.444 145.926 314.059 146.21C314.675 146.494 315.179 146.892 315.572 147.403C315.965 147.915 316.209 148.511 316.304 149.193H314.627C314.5 148.696 314.215 148.255 313.775 147.872C313.34 147.484 312.752 147.29 312.014 147.29C311.36 147.29 310.787 147.46 310.295 147.801C309.807 148.137 309.426 148.613 309.152 149.228C308.882 149.839 308.747 150.557 308.747 151.38C308.747 152.223 308.879 152.957 309.144 153.582C309.414 154.207 309.793 154.692 310.281 155.038C310.773 155.384 311.351 155.557 312.014 155.557C312.449 155.557 312.845 155.481 313.2 155.329C313.555 155.178 313.856 154.96 314.102 154.676C314.348 154.392 314.523 154.051 314.627 153.653H316.304C316.209 154.297 315.974 154.877 315.6 155.393C315.231 155.905 314.741 156.312 314.13 156.615C313.524 156.913 312.819 157.062 312.014 157.062ZM318.754 156.835V145.926H320.43V156.835H318.754ZM319.606 144.108C319.279 144.108 318.998 143.996 318.761 143.774C318.529 143.551 318.413 143.284 318.413 142.971C318.413 142.659 318.529 142.391 318.761 142.169C318.998 141.946 319.279 141.835 319.606 141.835C319.933 141.835 320.212 141.946 320.444 142.169C320.681 142.391 320.799 142.659 320.799 142.971C320.799 143.284 320.681 143.551 320.444 143.774C320.212 143.996 319.933 144.108 319.606 144.108ZM326.71 157.091C326.019 157.091 325.391 156.96 324.828 156.7C324.265 156.435 323.817 156.054 323.486 155.557C323.154 155.055 322.989 154.449 322.989 153.738C322.989 153.113 323.112 152.607 323.358 152.218C323.604 151.825 323.933 151.518 324.345 151.295C324.757 151.073 325.212 150.907 325.709 150.798C326.211 150.684 326.715 150.594 327.222 150.528C327.884 150.443 328.422 150.379 328.834 150.336C329.25 150.289 329.553 150.211 329.743 150.102C329.937 149.993 330.034 149.804 330.034 149.534V149.477C330.034 148.776 329.842 148.232 329.459 147.843C329.08 147.455 328.505 147.261 327.733 147.261C326.933 147.261 326.305 147.436 325.851 147.787C325.396 148.137 325.077 148.511 324.892 148.909L323.301 148.341C323.585 147.678 323.964 147.162 324.437 146.792C324.916 146.418 325.436 146.158 326 146.011C326.568 145.86 327.127 145.784 327.676 145.784C328.026 145.784 328.429 145.826 328.883 145.912C329.343 145.992 329.785 146.16 330.212 146.416C330.642 146.672 331 147.057 331.284 147.574C331.568 148.09 331.71 148.781 331.71 149.647V156.835H330.034V155.358H329.949C329.835 155.594 329.646 155.848 329.381 156.118C329.115 156.388 328.763 156.617 328.322 156.807C327.882 156.996 327.345 157.091 326.71 157.091ZM326.966 155.585C327.629 155.585 328.187 155.455 328.642 155.194C329.101 154.934 329.447 154.598 329.679 154.186C329.916 153.774 330.034 153.341 330.034 152.886V151.352C329.963 151.437 329.807 151.515 329.565 151.586C329.329 151.653 329.054 151.712 328.741 151.764C328.434 151.811 328.133 151.854 327.839 151.892C327.551 151.925 327.316 151.953 327.136 151.977C326.701 152.034 326.293 152.126 325.915 152.254C325.541 152.377 325.238 152.564 325.006 152.815C324.778 153.061 324.665 153.397 324.665 153.824C324.665 154.406 324.88 154.846 325.311 155.145C325.747 155.438 326.298 155.585 326.966 155.585ZM336.446 150.272V156.835H334.769V145.926H336.389V147.63H336.531C336.786 147.076 337.175 146.631 337.696 146.295C338.216 145.954 338.889 145.784 339.713 145.784C340.451 145.784 341.098 145.935 341.652 146.238C342.206 146.537 342.636 146.991 342.944 147.602C343.252 148.208 343.406 148.975 343.406 149.903V156.835H341.73V150.017C341.73 149.16 341.507 148.492 341.062 148.014C340.617 147.531 340.006 147.29 339.23 147.29C338.695 147.29 338.216 147.406 337.795 147.638C337.378 147.87 337.049 148.208 336.808 148.653C336.566 149.098 336.446 149.638 336.446 150.272Z" fill="#1E1E1E"/>
<path d="M16.7473 18.7213C51.8973 21.4713 87.4673 22.1513 141.707 18.7213C148.067 17.2413 151.887 22.2113 151.347 28.3613C149.797 32.1613 149.607 38.3613 151.347 47.6413C150.097 50.9813 146.857 56.4213 141.707 57.2813C113.177 56.8613 85.1773 54.5013 16.7473 57.2813C7.89732 56.3413 6.91732 54.8513 7.10732 47.6413C6.16732 37.2013 8.23732 31.0313 7.10732 28.3613C9.78732 21.0213 10.4673 15.9213 16.7473 18.7213Z" fill="#FFF5F5"/>
<path d="M16.7473 18.7213C41.5473 17.5613 69.1573 19.2513 141.707 18.7213M16.7473 18.7213C50.4373 19.6213 86.2373 20.7813 141.707 18.7213M16.7473 18.7213C11.3373 19.8313 6.60733 19.9813 7.10733 28.3613M16.7473 18.7213C10.2073 16.8713 9.31733 23.2213 7.10733 28.3613M141.707 18.7213C148.847 18.6913 153.297 22.9313 151.347 28.3613M141.707 18.7213C150.357 19.7913 153.107 22.5213 151.347 28.3613M151.347 28.3613C149.467 34.6713 149.767 39.8013 151.347 47.6413M151.347 28.3613C150.517 33.0013 150.767 39.0913 151.347 47.6413M151.347 47.6413C153.257 52.3113 147.007 58.1513 141.707 57.2813M151.347 47.6413C150.847 55.4113 146.127 58.3513 141.707 57.2813M141.707 57.2813C96.9273 56.1713 51.9173 56.4613 16.7473 57.2813M141.707 57.2813C109.327 55.2713 79.5873 56.6713 16.7473 57.2813M16.7473 57.2813C11.6273 57.0313 8.66733 52.3513 7.10733 47.6413M16.7473 57.2813C11.5273 58.2913 9.03733 53.0813 7.10733 47.6413M7.10733 47.6413C7.34733 38.9213 8.64733 31.3113 7.10733 28.3613M7.10733 47.6413C7.08733 41.6213 6.81733 35.6113 7.10733 28.3613" stroke="#1E1E1E" stroke-linecap="round"/>
<path d="M31.8778 41.0968V29.4604H35.8097C36.7188 29.4604 37.465 29.6157 38.0483 29.9263C38.6316 30.2332 39.0634 30.6555 39.3438 31.1934C39.6241 31.7313 39.7642 32.343 39.7642 33.0286C39.7642 33.7142 39.6241 34.3222 39.3438 34.8525C39.0634 35.3828 38.6335 35.7995 38.054 36.1025C37.4744 36.4017 36.7339 36.5513 35.8324 36.5513H32.6506V35.2786H35.7869C36.4081 35.2786 36.9081 35.1877 37.2869 35.0059C37.6695 34.8241 37.946 34.5665 38.1165 34.2332C38.2907 33.896 38.3778 33.4945 38.3778 33.0286C38.3778 32.5627 38.2907 32.1555 38.1165 31.807C37.9422 31.4585 37.6638 31.1896 37.2812 31.0002C36.8987 30.807 36.393 30.7104 35.7642 30.7104H33.2869V41.0968H31.8778ZM37.3551 35.8695L40.2188 41.0968H38.5824L35.7642 35.8695H37.3551ZM45.4957 41.2786C44.6548 41.2786 43.9295 41.093 43.3196 40.7218C42.7135 40.3468 42.2457 39.8241 41.9162 39.1536C41.5904 38.4794 41.4276 37.6953 41.4276 36.8013C41.4276 35.9074 41.5904 35.1195 41.9162 34.4377C42.2457 33.7521 42.7041 33.218 43.2912 32.8354C43.8821 32.4491 44.5715 32.2559 45.3594 32.2559C45.8139 32.2559 46.2628 32.3317 46.706 32.4832C47.1491 32.6347 47.5526 32.8809 47.9162 33.2218C48.2798 33.5589 48.5696 34.0059 48.7855 34.5627C49.0014 35.1195 49.1094 35.8051 49.1094 36.6195V37.1877H42.3821V36.0286H47.7457C47.7457 35.5362 47.6473 35.0968 47.4503 34.7104C47.2571 34.3241 46.9806 34.0191 46.6207 33.7957C46.2647 33.5722 45.8442 33.4604 45.3594 33.4604C44.8253 33.4604 44.3632 33.593 43.973 33.8582C43.5866 34.1195 43.2893 34.4604 43.081 34.8809C42.8726 35.3013 42.7685 35.7521 42.7685 36.2332V37.0059C42.7685 37.665 42.8821 38.2237 43.1094 38.682C43.3404 39.1366 43.6605 39.4832 44.0696 39.7218C44.4787 39.9567 44.9541 40.0741 45.4957 40.0741C45.848 40.0741 46.1662 40.0248 46.4503 39.9263C46.7382 39.8241 46.9863 39.6726 47.1946 39.4718C47.4029 39.2673 47.5639 39.0135 47.6776 38.7104L48.973 39.0741C48.8366 39.5135 48.6075 39.8998 48.2855 40.2332C47.9635 40.5627 47.5658 40.8203 47.0923 41.0059C46.6188 41.1877 46.0866 41.2786 45.4957 41.2786ZM55.0355 32.3695V33.5059H50.331V32.3695H55.0355ZM51.7401 41.0968V31.165C51.7401 30.665 51.8575 30.2483 52.0923 29.915C52.3272 29.5816 52.6321 29.3316 53.0071 29.165C53.3821 28.9983 53.7779 28.915 54.1946 28.915C54.5241 28.915 54.7931 28.9415 55.0014 28.9945C55.2098 29.0476 55.3651 29.0968 55.4673 29.1423L55.081 30.3013C55.0128 30.2786 54.9181 30.2502 54.7969 30.2161C54.6795 30.182 54.5241 30.165 54.331 30.165C53.8878 30.165 53.5677 30.2767 53.3707 30.5002C53.1776 30.7237 53.081 31.0513 53.081 31.4832V41.0968H51.7401ZM56.9148 41.0968V32.3695H58.2102V33.6877H58.3011C58.4602 33.2559 58.7481 32.9055 59.1648 32.6366C59.5814 32.3676 60.0511 32.2332 60.5739 32.2332C60.6723 32.2332 60.7955 32.2351 60.9432 32.2388C61.0909 32.2426 61.2027 32.2483 61.2784 32.2559V33.6195C61.233 33.6082 61.1288 33.5911 60.9659 33.5684C60.8068 33.5419 60.6383 33.5286 60.4602 33.5286C60.036 33.5286 59.6572 33.6176 59.3239 33.7957C58.9943 33.9699 58.733 34.2123 58.5398 34.5229C58.3504 34.8298 58.2557 35.1801 58.2557 35.5741V41.0968H56.9148ZM62.8679 41.0968V32.3695H64.2088V41.0968H62.8679ZM63.5497 30.915C63.2884 30.915 63.063 30.826 62.8736 30.6479C62.688 30.4699 62.5952 30.2559 62.5952 30.0059C62.5952 29.7559 62.688 29.5419 62.8736 29.3638C63.063 29.1858 63.2884 29.0968 63.5497 29.0968C63.8111 29.0968 64.0346 29.1858 64.2202 29.3638C64.4096 29.5419 64.5043 29.7559 64.5043 30.0059C64.5043 30.2559 64.4096 30.4699 64.2202 30.6479C64.0346 30.826 63.8111 30.915 63.5497 30.915ZM70.1875 44.5513C69.5398 44.5513 68.983 44.468 68.517 44.3013C68.0511 44.1385 67.6629 43.9226 67.3523 43.6536C67.0455 43.3885 66.8011 43.1044 66.6193 42.8013L67.6875 42.0513C67.8087 42.2104 67.9621 42.3923 68.1477 42.5968C68.3333 42.8051 68.5871 42.9851 68.9091 43.1366C69.2348 43.2919 69.661 43.3695 70.1875 43.3695C70.892 43.3695 71.4735 43.1991 71.9318 42.8582C72.3902 42.5173 72.6193 41.9832 72.6193 41.2559V39.4832H72.5057C72.4072 39.6423 72.267 39.8392 72.0852 40.0741C71.9072 40.3051 71.6496 40.5116 71.3125 40.6934C70.9792 40.8714 70.5284 40.9604 69.9602 40.9604C69.2557 40.9604 68.6231 40.7938 68.0625 40.4604C67.5057 40.1271 67.0644 39.6423 66.7386 39.0059C66.4167 38.3695 66.2557 37.5968 66.2557 36.6877C66.2557 35.7938 66.4129 35.0154 66.7273 34.3525C67.0417 33.6858 67.4792 33.1707 68.0398 32.807C68.6004 32.4396 69.2481 32.2559 69.983 32.2559C70.5511 32.2559 71.0019 32.3506 71.3352 32.54C71.6723 32.7256 71.9299 32.9377 72.108 33.1763C72.2898 33.4112 72.4299 33.6044 72.5284 33.7559H72.6648V32.3695H73.9602V41.3468C73.9602 42.0968 73.7898 42.7067 73.4489 43.1763C73.1117 43.6498 72.6572 43.9964 72.0852 44.2161C71.517 44.4396 70.8845 44.5513 70.1875 44.5513ZM70.142 39.7559C70.6799 39.7559 71.1345 39.6328 71.5057 39.3866C71.8769 39.1404 72.1591 38.7862 72.3523 38.3241C72.5455 37.862 72.642 37.3089 72.642 36.665C72.642 36.0362 72.5473 35.4813 72.358 35.0002C72.1686 34.5192 71.8883 34.1423 71.517 33.8695C71.1458 33.5968 70.6875 33.4604 70.142 33.4604C69.5739 33.4604 69.1004 33.6044 68.7216 33.8923C68.3466 34.1801 68.0644 34.5665 67.875 35.0513C67.6894 35.5362 67.5966 36.0741 67.5966 36.665C67.5966 37.271 67.6913 37.807 67.8807 38.2729C68.0739 38.7351 68.358 39.0987 68.733 39.3638C69.1117 39.6252 69.5814 39.7559 70.142 39.7559ZM80.0739 41.2786C79.233 41.2786 78.5076 41.093 77.8977 40.7218C77.2917 40.3468 76.8239 39.8241 76.4943 39.1536C76.1686 38.4794 76.0057 37.6953 76.0057 36.8013C76.0057 35.9074 76.1686 35.1195 76.4943 34.4377C76.8239 33.7521 77.2822 33.218 77.8693 32.8354C78.4602 32.4491 79.1496 32.2559 79.9375 32.2559C80.392 32.2559 80.8409 32.3317 81.2841 32.4832C81.7273 32.6347 82.1307 32.8809 82.4943 33.2218C82.858 33.5589 83.1477 34.0059 83.3636 34.5627C83.5795 35.1195 83.6875 35.8051 83.6875 36.6195V37.1877H76.9602V36.0286H82.3239C82.3239 35.5362 82.2254 35.0968 82.0284 34.7104C81.8352 34.3241 81.5587 34.0191 81.1989 33.7957C80.8428 33.5722 80.4223 33.4604 79.9375 33.4604C79.4034 33.4604 78.9413 33.593 78.5511 33.8582C78.1648 34.1195 77.8674 34.4604 77.6591 34.8809C77.4508 35.3013 77.3466 35.7521 77.3466 36.2332V37.0059C77.3466 37.665 77.4602 38.2237 77.6875 38.682C77.9186 39.1366 78.2386 39.4832 78.6477 39.7218C79.0568 39.9567 79.5322 40.0741 80.0739 40.0741C80.4261 40.0741 80.7443 40.0248 81.0284 39.9263C81.3163 39.8241 81.5644 39.6726 81.7727 39.4718C81.9811 39.2673 82.142 39.0135 82.2557 38.7104L83.5511 39.0741C83.4148 39.5135 83.1856 39.8998 82.8636 40.2332C82.5417 40.5627 82.1439 40.8203 81.6705 41.0059C81.197 41.1877 80.6648 41.2786 80.0739 41.2786ZM85.7273 41.0968V32.3695H87.0227V33.6877H87.1136C87.2727 33.2559 87.5606 32.9055 87.9773 32.6366C88.3939 32.3676 88.8636 32.2332 89.3864 32.2332C89.4848 32.2332 89.608 32.2351 89.7557 32.2388C89.9034 32.2426 90.0152 32.2483 90.0909 32.2559V33.6195C90.0455 33.6082 89.9413 33.5911 89.7784 33.5684C89.6193 33.5419 89.4508 33.5286 89.2727 33.5286C88.8485 33.5286 88.4697 33.6176 88.1364 33.7957C87.8068 33.9699 87.5455 34.2123 87.3523 34.5229C87.1629 34.8298 87.0682 35.1801 87.0682 35.5741V41.0968H85.7273ZM94.2486 41.3013C93.6955 41.3013 93.1937 41.1972 92.7429 40.9888C92.2921 40.7767 91.9342 40.4718 91.669 40.0741C91.4039 39.6726 91.2713 39.1877 91.2713 38.6195C91.2713 38.1195 91.3698 37.7142 91.5668 37.4036C91.7637 37.0892 92.027 36.843 92.3565 36.665C92.6861 36.487 93.0497 36.3544 93.4474 36.2673C93.849 36.1763 94.2524 36.1044 94.6577 36.0513C95.188 35.9832 95.6179 35.932 95.9474 35.8979C96.2808 35.8601 96.5232 35.7976 96.6747 35.7104C96.83 35.6233 96.9077 35.4718 96.9077 35.2559V35.2104C96.9077 34.6498 96.7543 34.2142 96.4474 33.9036C96.1444 33.593 95.6842 33.4377 95.0668 33.4377C94.4266 33.4377 93.9247 33.5779 93.5611 33.8582C93.1974 34.1385 92.9418 34.4377 92.794 34.7559L91.5213 34.3013C91.7486 33.771 92.0516 33.3582 92.4304 33.0627C92.813 32.7635 93.2296 32.5551 93.6804 32.4377C94.1349 32.3165 94.5819 32.2559 95.0213 32.2559C95.3016 32.2559 95.6236 32.29 95.9872 32.3582C96.3546 32.4226 96.7088 32.557 97.0497 32.7616C97.3944 32.9661 97.6804 33.2748 97.9077 33.6877C98.1349 34.1006 98.2486 34.6536 98.2486 35.3468V41.0968H96.9077V39.915H96.8395C96.7486 40.1044 96.5971 40.307 96.3849 40.5229C96.1728 40.7388 95.8906 40.9226 95.5384 41.0741C95.1861 41.2256 94.7562 41.3013 94.2486 41.3013ZM94.4531 40.0968C94.9834 40.0968 95.4304 39.9926 95.794 39.7843C96.1615 39.576 96.438 39.307 96.6236 38.9775C96.813 38.6479 96.9077 38.3013 96.9077 37.9377V36.7104C96.8509 36.7786 96.7259 36.8411 96.5327 36.8979C96.3433 36.951 96.1236 36.9983 95.8736 37.04C95.6274 37.0779 95.3868 37.112 95.152 37.1423C94.9209 37.1688 94.7334 37.1915 94.5895 37.2104C94.241 37.2559 93.9152 37.3298 93.6122 37.432C93.313 37.5305 93.0705 37.6801 92.8849 37.8809C92.7031 38.0779 92.6122 38.3468 92.6122 38.6877C92.6122 39.1536 92.7846 39.5059 93.1293 39.7445C93.4777 39.9794 93.919 40.0968 94.4531 40.0968ZM104.491 32.3695V33.5059H99.9688V32.3695H104.491ZM101.287 30.2786H102.628V38.5968C102.628 38.9756 102.683 39.2597 102.793 39.4491C102.906 39.6347 103.05 39.7597 103.224 39.8241C103.402 39.8847 103.59 39.915 103.787 39.915C103.935 39.915 104.056 39.9074 104.151 39.8923C104.245 39.8733 104.321 39.8582 104.378 39.8468L104.651 41.0513C104.56 41.0854 104.433 41.1195 104.27 41.1536C104.107 41.1915 103.901 41.2104 103.651 41.2104C103.272 41.2104 102.901 41.129 102.537 40.9661C102.177 40.8032 101.878 40.5551 101.639 40.2218C101.404 39.8885 101.287 39.468 101.287 38.9604V30.2786ZM106.509 41.0968V32.3695H107.849V41.0968H106.509ZM107.19 30.915C106.929 30.915 106.704 30.826 106.514 30.6479C106.329 30.4699 106.236 30.2559 106.236 30.0059C106.236 29.7559 106.329 29.5419 106.514 29.3638C106.704 29.1858 106.929 29.0968 107.19 29.0968C107.452 29.0968 107.675 29.1858 107.861 29.3638C108.05 29.5419 108.145 29.7559 108.145 30.0059C108.145 30.2559 108.05 30.4699 107.861 30.6479C107.675 30.826 107.452 30.915 107.19 30.915ZM113.851 41.2786C113.063 41.2786 112.372 41.0911 111.777 40.7161C111.186 40.3411 110.724 39.8165 110.391 39.1423C110.061 38.468 109.896 37.6801 109.896 36.7786C109.896 35.8695 110.061 35.076 110.391 34.3979C110.724 33.7199 111.186 33.1934 111.777 32.8184C112.372 32.4434 113.063 32.2559 113.851 32.2559C114.639 32.2559 115.328 32.4434 115.919 32.8184C116.514 33.1934 116.976 33.7199 117.305 34.3979C117.639 35.076 117.805 35.8695 117.805 36.7786C117.805 37.6801 117.639 38.468 117.305 39.1423C116.976 39.8165 116.514 40.3411 115.919 40.7161C115.328 41.0911 114.639 41.2786 113.851 41.2786ZM113.851 40.0741C114.449 40.0741 114.942 39.9207 115.328 39.6138C115.714 39.307 116 38.9036 116.186 38.4036C116.372 37.9036 116.464 37.362 116.464 36.7786C116.464 36.1953 116.372 35.6517 116.186 35.1479C116 34.6442 115.714 34.237 115.328 33.9263C114.942 33.6157 114.449 33.4604 113.851 33.4604C113.252 33.4604 112.76 33.6157 112.374 33.9263C111.987 34.237 111.701 34.6442 111.516 35.1479C111.33 35.6517 111.237 36.1953 111.237 36.7786C111.237 37.362 111.33 37.9036 111.516 38.4036C111.701 38.9036 111.987 39.307 112.374 39.6138C112.76 39.9207 113.252 40.0741 113.851 40.0741ZM121.193 35.8468V41.0968H119.852V32.3695H121.148V33.7332H121.261C121.466 33.29 121.777 32.9339 122.193 32.665C122.61 32.3923 123.148 32.2559 123.807 32.2559C124.398 32.2559 124.915 32.3771 125.358 32.6195C125.801 32.8582 126.146 33.2218 126.392 33.7104C126.638 34.1953 126.761 34.8089 126.761 35.5513V41.0968H125.42V35.6423C125.42 34.9567 125.242 34.4226 124.886 34.04C124.53 33.6536 124.042 33.4604 123.42 33.4604C122.992 33.4604 122.61 33.5532 122.273 33.7388C121.939 33.9245 121.676 34.1953 121.483 34.5513C121.29 34.9074 121.193 35.3392 121.193 35.8468Z" fill="#1E1E1E"/>
<path d="M48.7154 244.64C98.0854 242.64 144.825 243.3 173.675 244.64C181.465 247.73 183.955 250.83 183.315 254.28C185.655 258.67 186.425 262.2 183.315 273.56C180.285 277.46 181.225 280.39 173.675 283.2C128.625 283.13 90.6654 285.97 48.7154 283.2C42.9254 283.77 35.7754 281.71 39.0754 273.56C37.8954 269.21 40.9354 258.87 39.0754 254.28C41.5554 247.52 43.8654 244.36 48.7154 244.64Z" fill="#FFF5F5"/>
<path d="M48.7154 244.64C77.7654 246.85 105.365 244.68 173.675 244.64M48.7154 244.64C85.7854 244.96 122.015 245.9 173.675 244.64M48.7154 244.64C43.9054 244.76 41.0654 248.64 39.0754 254.28M48.7154 244.64C44.3754 245.8 38.2354 249.87 39.0754 254.28M173.675 244.64C181.735 245.93 183.675 246.44 183.315 254.28M173.675 244.64C178.445 246.8 182.905 247.31 183.315 254.28M183.315 254.28C184.405 259.64 182.655 265.27 183.315 273.56M183.315 254.28C182.805 261.45 183.095 268.46 183.315 273.56M183.315 273.56C184.275 279.08 180.485 284.41 173.675 283.2M183.315 273.56C184.005 282.05 179.305 282.51 173.675 283.2M173.675 283.2C130.145 282.07 88.4654 283.02 48.7154 283.2M173.675 283.2C148.035 284.09 122.045 284.42 48.7154 283.2M48.7154 283.2C42.8954 282.69 39.3054 281.46 39.0754 273.56M48.7154 283.2C40.1554 281.36 39.6854 279.73 39.0754 273.56M39.0754 273.56C37.2654 268.3 41.0454 260.39 39.0754 254.28M39.0754 273.56C38.4354 266.2 39.0454 259.86 39.0754 254.28" stroke="#1E1E1E" stroke-linecap="round"/>
<path d="M78.143 267.015V255.379H85.1657V256.629H79.5521V260.561H84.8021V261.811H79.5521V265.765H85.2566V267.015H78.143ZM88.8646 255.379V267.015H87.5237V255.379H88.8646ZM94.9796 267.197C94.1387 267.197 93.4133 267.011 92.8035 266.64C92.1974 266.265 91.7296 265.743 91.4001 265.072C91.0743 264.398 90.9114 263.614 90.9114 262.72C90.9114 261.826 91.0743 261.038 91.4001 260.356C91.7296 259.671 92.188 259.136 92.7751 258.754C93.366 258.368 94.0554 258.174 94.8433 258.174C95.2978 258.174 95.7467 258.25 96.1899 258.402C96.633 258.553 97.0364 258.799 97.4001 259.14C97.7637 259.477 98.0535 259.924 98.2694 260.481C98.4853 261.038 98.5933 261.724 98.5933 262.538V263.106H91.866V261.947H97.2296C97.2296 261.455 97.1311 261.015 96.9342 260.629C96.741 260.243 96.4645 259.938 96.1046 259.714C95.7486 259.491 95.3281 259.379 94.8433 259.379C94.3092 259.379 93.847 259.511 93.4569 259.777C93.0705 260.038 92.7732 260.379 92.5649 260.799C92.3565 261.22 92.2524 261.671 92.2524 262.152V262.924C92.2524 263.583 92.366 264.142 92.5933 264.6C92.8243 265.055 93.1444 265.402 93.5535 265.64C93.9626 265.875 94.438 265.993 94.9796 265.993C95.3319 265.993 95.6501 265.943 95.9342 265.845C96.222 265.743 96.4702 265.591 96.6785 265.39C96.8868 265.186 97.0478 264.932 97.1614 264.629L98.4569 264.993C98.3205 265.432 98.0914 265.818 97.7694 266.152C97.4474 266.481 97.0497 266.739 96.5762 266.924C96.1027 267.106 95.5705 267.197 94.9796 267.197ZM104.178 267.197C103.36 267.197 102.656 267.004 102.065 266.618C101.474 266.231 101.019 265.699 100.701 265.021C100.383 264.343 100.224 263.568 100.224 262.697C100.224 261.811 100.387 261.029 100.713 260.35C101.042 259.669 101.5 259.136 102.088 258.754C102.678 258.368 103.368 258.174 104.156 258.174C104.769 258.174 105.322 258.288 105.815 258.515C106.307 258.743 106.711 259.061 107.025 259.47C107.339 259.879 107.535 260.356 107.61 260.902H106.269C106.167 260.504 105.94 260.152 105.588 259.845C105.239 259.534 104.769 259.379 104.178 259.379C103.656 259.379 103.197 259.515 102.803 259.788C102.413 260.057 102.108 260.438 101.889 260.93C101.673 261.419 101.565 261.993 101.565 262.652C101.565 263.326 101.671 263.913 101.883 264.413C102.099 264.913 102.402 265.301 102.792 265.578C103.186 265.854 103.648 265.993 104.178 265.993C104.527 265.993 104.843 265.932 105.127 265.811C105.411 265.69 105.652 265.515 105.849 265.288C106.046 265.061 106.186 264.788 106.269 264.47H107.61C107.535 264.985 107.347 265.449 107.048 265.862C106.752 266.271 106.36 266.597 105.872 266.839C105.387 267.078 104.822 267.197 104.178 267.197ZM113.366 258.288V259.424H108.843V258.288H113.366ZM110.161 256.197H111.502V264.515C111.502 264.894 111.557 265.178 111.667 265.368C111.781 265.553 111.925 265.678 112.099 265.743C112.277 265.803 112.464 265.833 112.661 265.833C112.809 265.833 112.93 265.826 113.025 265.811C113.12 265.792 113.196 265.777 113.252 265.765L113.525 266.97C113.434 267.004 113.307 267.038 113.144 267.072C112.982 267.11 112.775 267.129 112.525 267.129C112.146 267.129 111.775 267.047 111.411 266.885C111.052 266.722 110.752 266.474 110.514 266.14C110.279 265.807 110.161 265.386 110.161 264.879V256.197ZM115.383 267.015V258.288H116.678V259.606H116.769C116.928 259.174 117.216 258.824 117.633 258.555C118.05 258.286 118.519 258.152 119.042 258.152C119.141 258.152 119.264 258.154 119.411 258.157C119.559 258.161 119.671 258.167 119.747 258.174V259.538C119.701 259.527 119.597 259.51 119.434 259.487C119.275 259.46 119.107 259.447 118.928 259.447C118.504 259.447 118.125 259.536 117.792 259.714C117.463 259.888 117.201 260.131 117.008 260.441C116.819 260.748 116.724 261.099 116.724 261.493V267.015H115.383ZM121.336 267.015V258.288H122.677V267.015H121.336ZM122.018 256.833C121.757 256.833 121.531 256.744 121.342 256.566C121.156 256.388 121.063 256.174 121.063 255.924C121.063 255.674 121.156 255.46 121.342 255.282C121.531 255.104 121.757 255.015 122.018 255.015C122.279 255.015 122.503 255.104 122.688 255.282C122.878 255.46 122.973 255.674 122.973 255.924C122.973 256.174 122.878 256.388 122.688 256.566C122.503 256.744 122.279 256.833 122.018 256.833ZM128.678 267.197C127.86 267.197 127.156 267.004 126.565 266.618C125.974 266.231 125.519 265.699 125.201 265.021C124.883 264.343 124.724 263.568 124.724 262.697C124.724 261.811 124.887 261.029 125.213 260.35C125.542 259.669 126 259.136 126.588 258.754C127.178 258.368 127.868 258.174 128.656 258.174C129.269 258.174 129.822 258.288 130.315 258.515C130.807 258.743 131.211 259.061 131.525 259.47C131.839 259.879 132.035 260.356 132.11 260.902H130.769C130.667 260.504 130.44 260.152 130.088 259.845C129.739 259.534 129.269 259.379 128.678 259.379C128.156 259.379 127.697 259.515 127.303 259.788C126.913 260.057 126.608 260.438 126.389 260.93C126.173 261.419 126.065 261.993 126.065 262.652C126.065 263.326 126.171 263.913 126.383 264.413C126.599 264.913 126.902 265.301 127.292 265.578C127.686 265.854 128.148 265.993 128.678 265.993C129.027 265.993 129.343 265.932 129.627 265.811C129.911 265.69 130.152 265.515 130.349 265.288C130.546 265.061 130.686 264.788 130.769 264.47H132.11C132.035 264.985 131.847 265.449 131.548 265.862C131.252 266.271 130.86 266.597 130.372 266.839C129.887 267.078 129.322 267.197 128.678 267.197ZM136.639 267.22C136.086 267.22 135.584 267.116 135.133 266.907C134.682 266.695 134.324 266.39 134.059 265.993C133.794 265.591 133.661 265.106 133.661 264.538C133.661 264.038 133.76 263.633 133.957 263.322C134.154 263.008 134.417 262.761 134.747 262.583C135.076 262.405 135.44 262.273 135.838 262.186C136.239 262.095 136.643 262.023 137.048 261.97C137.578 261.902 138.008 261.85 138.338 261.816C138.671 261.779 138.913 261.716 139.065 261.629C139.22 261.542 139.298 261.39 139.298 261.174V261.129C139.298 260.568 139.144 260.133 138.838 259.822C138.535 259.511 138.074 259.356 137.457 259.356C136.817 259.356 136.315 259.496 135.951 259.777C135.588 260.057 135.332 260.356 135.184 260.674L133.911 260.22C134.139 259.69 134.442 259.277 134.821 258.981C135.203 258.682 135.62 258.474 136.071 258.356C136.525 258.235 136.972 258.174 137.411 258.174C137.692 258.174 138.014 258.208 138.377 258.277C138.745 258.341 139.099 258.475 139.44 258.68C139.785 258.885 140.071 259.193 140.298 259.606C140.525 260.019 140.639 260.572 140.639 261.265V267.015H139.298V265.833H139.23C139.139 266.023 138.987 266.225 138.775 266.441C138.563 266.657 138.281 266.841 137.928 266.993C137.576 267.144 137.146 267.22 136.639 267.22ZM136.843 266.015C137.374 266.015 137.821 265.911 138.184 265.703C138.552 265.494 138.828 265.225 139.014 264.896C139.203 264.566 139.298 264.22 139.298 263.856V262.629C139.241 262.697 139.116 262.76 138.923 262.816C138.733 262.869 138.514 262.917 138.264 262.958C138.018 262.996 137.777 263.03 137.542 263.061C137.311 263.087 137.124 263.11 136.98 263.129C136.631 263.174 136.305 263.248 136.002 263.35C135.703 263.449 135.461 263.599 135.275 263.799C135.093 263.996 135.002 264.265 135.002 264.606C135.002 265.072 135.175 265.424 135.519 265.663C135.868 265.898 136.309 266.015 136.843 266.015ZM144.427 255.379V267.015H143.086V255.379H144.427Z" fill="#1E1E1E"/>
<path d="M240.077 304.02C279.747 307.58 321.947 303.18 365.037 304.02C374.687 300.81 371.647 304.71 374.677 313.66C372.137 321.9 372.057 325.21 374.677 332.94C376.897 340.94 372.097 343.15 365.037 342.58C340.137 346.24 311.847 344.97 240.077 342.58C235.687 340.19 232.917 339.03 230.437 332.94C229.727 324.69 228.037 320.99 230.437 313.66C227.897 309.15 234.737 301.07 240.077 304.02Z" fill="#FFF5F5"/>
<path d="M240.077 304.02C274.347 305.78 307.387 305.49 365.037 304.02M240.077 304.02C280.747 304.74 319.297 304.5 365.037 304.02M240.077 304.02C233.587 302.76 230.237 307 230.437 313.66M240.077 304.02C234.527 306 228.607 306.21 230.437 313.66M365.037 304.02C372.627 304.47 375.697 307.64 374.677 313.66M365.037 304.02C370.537 305.28 375.847 306.62 374.677 313.66M374.677 313.66C374.237 319.12 375.517 321.16 374.677 332.94M374.677 313.66C375.657 319.48 374.507 326.41 374.677 332.94M374.677 332.94C374.947 337.56 371.127 342.58 365.037 342.58M374.677 332.94C376.037 340.46 369.257 343.86 365.037 342.58M365.037 342.58C322.737 345.02 283.717 342.75 240.077 342.58M365.037 342.58C325.307 341.68 287.067 341.83 240.077 342.58M240.077 342.58C232.937 342.01 228.487 340.74 230.437 332.94M240.077 342.58C235.927 342.57 231.627 337.81 230.437 332.94M230.437 332.94C230.277 328.21 232.507 324.8 230.437 313.66M230.437 332.94C231.267 326.48 230.917 319.19 230.437 313.66" stroke="#1E1E1E" stroke-linecap="round"/>
<path d="M274.146 326.396H272.669L276.942 314.759H278.396L282.669 326.396H281.192L277.714 316.6H277.623L274.146 326.396ZM274.692 321.85H280.646V323.1H274.692V321.85ZM284.393 326.396V317.668H285.734V326.396H284.393ZM285.075 316.214C284.814 316.214 284.588 316.125 284.399 315.947C284.213 315.769 284.121 315.555 284.121 315.305C284.121 315.055 284.213 314.841 284.399 314.663C284.588 314.485 284.814 314.396 285.075 314.396C285.336 314.396 285.56 314.485 285.746 314.663C285.935 314.841 286.03 315.055 286.03 315.305C286.03 315.555 285.935 315.769 285.746 315.947C285.56 316.125 285.336 316.214 285.075 316.214ZM288.19 326.396V317.668H289.486V318.987H289.577C289.736 318.555 290.023 318.204 290.44 317.935C290.857 317.666 291.327 317.532 291.849 317.532C291.948 317.532 292.071 317.534 292.219 317.538C292.366 317.541 292.478 317.547 292.554 317.555V318.918C292.508 318.907 292.404 318.89 292.241 318.867C292.082 318.841 291.914 318.827 291.736 318.827C291.311 318.827 290.933 318.916 290.599 319.094C290.27 319.269 290.008 319.511 289.815 319.822C289.626 320.129 289.531 320.479 289.531 320.873V326.396H288.19ZM298.825 326.396V314.759H305.802V316.009H300.234V319.941H305.28V321.191H300.234V326.396H298.825ZM309.375 314.759V326.396H308.034V314.759H309.375ZM315.376 326.577C314.588 326.577 313.897 326.39 313.302 326.015C312.711 325.64 312.249 325.115 311.916 324.441C311.586 323.767 311.422 322.979 311.422 322.077C311.422 321.168 311.586 320.375 311.916 319.697C312.249 319.019 312.711 318.492 313.302 318.117C313.897 317.742 314.588 317.555 315.376 317.555C316.164 317.555 316.854 317.742 317.444 318.117C318.039 318.492 318.501 319.019 318.831 319.697C319.164 320.375 319.331 321.168 319.331 322.077C319.331 322.979 319.164 323.767 318.831 324.441C318.501 325.115 318.039 325.64 317.444 326.015C316.854 326.39 316.164 326.577 315.376 326.577ZM315.376 325.373C315.975 325.373 316.467 325.219 316.854 324.913C317.24 324.606 317.526 324.202 317.711 323.702C317.897 323.202 317.99 322.661 317.99 322.077C317.99 321.494 317.897 320.951 317.711 320.447C317.526 319.943 317.24 319.536 316.854 319.225C316.467 318.915 315.975 318.759 315.376 318.759C314.778 318.759 314.285 318.915 313.899 319.225C313.513 319.536 313.227 319.943 313.041 320.447C312.855 320.951 312.763 321.494 312.763 322.077C312.763 322.661 312.855 323.202 313.041 323.702C313.227 324.202 313.513 324.606 313.899 324.913C314.285 325.219 314.778 325.373 315.376 325.373ZM323.058 326.396L320.399 317.668H321.808L323.694 324.35H323.785L325.649 317.668H327.081L328.922 324.327H329.013L330.899 317.668H332.308L329.649 326.396H328.331L326.422 319.691H326.285L324.376 326.396H323.058Z" fill="#1E1E1E"/>
<path d="M10.478 137.236C34.638 138.006 62.048 138.456 135.438 137.236C139.428 135.966 147.298 142.026 145.078 146.876C146.788 153.736 146.228 162.196 145.078 166.156C143.968 174.496 143.908 173.406 135.438 175.796C89.048 179.156 42.468 175.096 10.478 175.796C1.538 177.146 -1.702 174.496 0.837996 166.156C1.808 163.006 1.118 153.446 0.837996 146.876C2.168 138.096 5.248 140.156 10.478 137.236Z" fill="#FFF5F5"/>
<path d="M10.478 137.236C38.488 136.616 68.608 137.906 135.438 137.236M10.478 137.236C54.878 138.246 97.928 136.906 135.438 137.236M10.478 137.236C4.02796 139.036 2.48796 140.166 0.837957 146.876M10.478 137.236C6.11796 135.186 2.38796 139.706 0.837957 146.876M135.438 137.236C140.918 138.066 144.718 141.776 145.078 146.876M135.438 137.236C142.968 136.196 145.518 141.836 145.078 146.876M145.078 146.876C144.678 154.116 145.508 157.856 145.078 166.156M145.078 146.876C145.538 151.406 145.608 158.056 145.078 166.156M145.078 166.156C144.758 173.676 140.528 177.546 135.438 175.796M145.078 166.156C145.778 171.996 142.128 177.496 135.438 175.796M135.438 175.796C109.338 176.956 82.968 175.556 10.478 175.796M135.438 175.796C110.098 177.546 84.088 176.336 10.478 175.796M10.478 175.796C2.44796 174.596 0.507957 172.296 0.837957 166.156M10.478 175.796C6.33796 176.696 2.69796 172.716 0.837957 166.156M0.837957 166.156C1.64796 162.926 0.477957 155.766 0.837957 146.876M0.837957 166.156C0.527957 160.806 1.78796 154.886 0.837957 146.876" stroke="#1E1E1E" stroke-linecap="round"/>
<path d="M34.0927 159.611V147.975H41.1154V149.225H35.5018V153.157H40.7518V154.407H35.5018V158.361H41.2063V159.611H34.0927ZM49.4279 162.884V158.271H49.3143C49.2158 158.43 49.0756 158.63 48.8938 158.873C48.712 159.111 48.4525 159.325 48.1154 159.515C47.7783 159.7 47.3294 159.793 46.7688 159.793C46.0415 159.793 45.3995 159.61 44.8427 159.242C44.2859 158.871 43.8503 158.348 43.5359 157.674C43.2215 156.996 43.0643 156.195 43.0643 155.271C43.0643 154.354 43.2215 153.558 43.5359 152.884C43.8503 152.21 44.2878 151.689 44.8484 151.322C45.409 150.954 46.0567 150.771 46.7915 150.771C47.3597 150.771 47.8086 150.865 48.1381 151.055C48.4715 151.24 48.7253 151.452 48.8995 151.691C49.0775 151.926 49.2158 152.119 49.3143 152.271H49.4734V150.884H50.7688V162.884H49.4279ZM46.9506 158.589C47.4885 158.589 47.9431 158.449 48.3143 158.168C48.6855 157.884 48.9677 157.492 49.1609 156.992C49.354 156.488 49.4506 155.907 49.4506 155.248C49.4506 154.596 49.3559 154.026 49.1665 153.538C48.9772 153.045 48.6969 152.663 48.3256 152.39C47.9544 152.113 47.4961 151.975 46.9506 151.975C46.3825 151.975 45.909 152.121 45.5302 152.413C45.1552 152.7 44.873 153.093 44.6836 153.589C44.498 154.081 44.4052 154.634 44.4052 155.248C44.4052 155.869 44.4999 156.433 44.6893 156.941C44.8825 157.445 45.1665 157.846 45.5415 158.146C45.9203 158.441 46.39 158.589 46.9506 158.589ZM58.7234 156.043V150.884H60.0643V159.611H58.7234V158.134H58.6325C58.4279 158.577 58.1097 158.954 57.6779 159.265C57.2461 159.572 56.7006 159.725 56.0415 159.725C55.4961 159.725 55.0112 159.606 54.587 159.367C54.1628 159.125 53.8294 158.761 53.587 158.276C53.3446 157.788 53.2234 157.172 53.2234 156.43V150.884H54.5643V156.339C54.5643 156.975 54.7423 157.483 55.0984 157.861C55.4582 158.24 55.9165 158.43 56.4734 158.43C56.8067 158.43 57.1457 158.344 57.4904 158.174C57.8389 158.003 58.1306 157.742 58.3654 157.39C58.604 157.038 58.7234 156.589 58.7234 156.043ZM62.5202 159.611V150.884H63.8612V159.611H62.5202ZM63.2021 149.43C62.9407 149.43 62.7153 149.341 62.5259 149.163C62.3403 148.985 62.2475 148.771 62.2475 148.521C62.2475 148.271 62.3403 148.057 62.5259 147.878C62.7153 147.7 62.9407 147.611 63.2021 147.611C63.4634 147.611 63.6869 147.7 63.8725 147.878C64.0619 148.057 64.1566 148.271 64.1566 148.521C64.1566 148.771 64.0619 148.985 63.8725 149.163C63.6869 149.341 63.4634 149.43 63.2021 149.43ZM66.3171 162.884V150.884H67.6126V152.271H67.7717C67.8701 152.119 68.0065 151.926 68.1808 151.691C68.3588 151.452 68.6126 151.24 68.9421 151.055C69.2754 150.865 69.7262 150.771 70.2944 150.771C71.0292 150.771 71.677 150.954 72.2376 151.322C72.7982 151.689 73.2357 152.21 73.5501 152.884C73.8645 153.558 74.0217 154.354 74.0217 155.271C74.0217 156.195 73.8645 156.996 73.5501 157.674C73.2357 158.348 72.8001 158.871 72.2433 159.242C71.6864 159.61 71.0444 159.793 70.3171 159.793C69.7565 159.793 69.3076 159.7 68.9705 159.515C68.6334 159.325 68.3739 159.111 68.1921 158.873C68.0103 158.63 67.8701 158.43 67.7717 158.271H67.658V162.884H66.3171ZM67.6353 155.248C67.6353 155.907 67.7319 156.488 67.9251 156.992C68.1183 157.492 68.4004 157.884 68.7717 158.168C69.1429 158.449 69.5974 158.589 70.1353 158.589C70.6959 158.589 71.1637 158.441 71.5387 158.146C71.9175 157.846 72.2016 157.445 72.391 156.941C72.5842 156.433 72.6808 155.869 72.6808 155.248C72.6808 154.634 72.5861 154.081 72.3967 153.589C72.2111 153.093 71.9289 152.7 71.5501 152.413C71.1751 152.121 70.7035 151.975 70.1353 151.975C69.5898 151.975 69.1315 152.113 68.7603 152.39C68.3891 152.663 68.1088 153.045 67.9194 153.538C67.73 154.026 67.6353 154.596 67.6353 155.248ZM76.0671 159.611V150.884H77.3626V152.248H77.4762C77.658 151.782 77.9516 151.42 78.3569 151.163C78.7622 150.901 79.2489 150.771 79.8171 150.771C80.3929 150.771 80.872 150.901 81.2546 151.163C81.641 151.42 81.9421 151.782 82.158 152.248H82.2489C82.4724 151.797 82.8076 151.439 83.2546 151.174C83.7016 150.905 84.2376 150.771 84.8626 150.771C85.6429 150.771 86.2811 151.015 86.7773 151.503C87.2736 151.988 87.5217 152.744 87.5217 153.771V159.611H86.1808V153.771C86.1808 153.127 86.0046 152.666 85.6523 152.39C85.3001 152.113 84.8853 151.975 84.408 151.975C83.7944 151.975 83.319 152.161 82.9819 152.532C82.6448 152.899 82.4762 153.365 82.4762 153.93V159.611H81.1126V153.634C81.1126 153.138 80.9516 152.738 80.6296 152.435C80.3076 152.128 79.8929 151.975 79.3853 151.975C79.0368 151.975 78.7111 152.068 78.408 152.253C78.1088 152.439 77.8664 152.697 77.6808 153.026C77.4989 153.352 77.408 153.729 77.408 154.157V159.611H76.0671ZM93.6325 159.793C92.7915 159.793 92.0662 159.608 91.4563 159.236C90.8503 158.861 90.3825 158.339 90.0529 157.668C89.7272 156.994 89.5643 156.21 89.5643 155.316C89.5643 154.422 89.7272 153.634 90.0529 152.952C90.3825 152.267 90.8408 151.733 91.4279 151.35C92.0188 150.964 92.7082 150.771 93.4961 150.771C93.9506 150.771 94.3995 150.846 94.8427 150.998C95.2859 151.149 95.6893 151.396 96.0529 151.736C96.4165 152.074 96.7063 152.521 96.9222 153.077C97.1381 153.634 97.2461 154.32 97.2461 155.134V155.702H90.5188V154.543H95.8825C95.8825 154.051 95.784 153.611 95.587 153.225C95.3938 152.839 95.1173 152.534 94.7575 152.31C94.4014 152.087 93.9809 151.975 93.4961 151.975C92.962 151.975 92.4999 152.108 92.1097 152.373C91.7234 152.634 91.426 152.975 91.2177 153.396C91.0094 153.816 90.9052 154.267 90.9052 154.748V155.521C90.9052 156.18 91.0188 156.738 91.2461 157.197C91.4772 157.651 91.7972 157.998 92.2063 158.236C92.6154 158.471 93.0908 158.589 93.6325 158.589C93.9847 158.589 94.3029 158.539 94.587 158.441C94.8749 158.339 95.123 158.187 95.3313 157.986C95.5397 157.782 95.7006 157.528 95.8143 157.225L97.1097 157.589C96.9734 158.028 96.7442 158.414 96.4222 158.748C96.1003 159.077 95.7025 159.335 95.229 159.521C94.7556 159.702 94.2234 159.793 93.6325 159.793ZM100.627 154.361V159.611H99.2859V150.884H100.581V152.248H100.695C100.9 151.805 101.21 151.449 101.627 151.18C102.043 150.907 102.581 150.771 103.24 150.771C103.831 150.771 104.348 150.892 104.792 151.134C105.235 151.373 105.579 151.736 105.826 152.225C106.072 152.71 106.195 153.324 106.195 154.066V159.611H104.854V154.157C104.854 153.471 104.676 152.937 104.32 152.555C103.964 152.168 103.475 151.975 102.854 151.975C102.426 151.975 102.043 152.068 101.706 152.253C101.373 152.439 101.11 152.71 100.917 153.066C100.723 153.422 100.627 153.854 100.627 154.361ZM112.441 150.884V152.021H107.918V150.884H112.441ZM109.236 148.793H110.577V157.111C110.577 157.49 110.632 157.774 110.742 157.964C110.855 158.149 110.999 158.274 111.174 158.339C111.352 158.399 111.539 158.43 111.736 158.43C111.884 158.43 112.005 158.422 112.1 158.407C112.194 158.388 112.27 158.373 112.327 158.361L112.6 159.566C112.509 159.6 112.382 159.634 112.219 159.668C112.056 159.706 111.85 159.725 111.6 159.725C111.221 159.725 110.85 159.644 110.486 159.481C110.126 159.318 109.827 159.07 109.588 158.736C109.354 158.403 109.236 157.983 109.236 157.475V148.793Z" fill="#1E1E1E"/>
<path d="M214.806 72.5152C187.136 61.4152 167.906 43.6252 151.836 35.4652M214.616 73.5452C198.256 62.2952 182.606 56.9552 150.346 38.4752" stroke="#1E1E1E" stroke-linecap="round"/>
<path d="M174.907 42.3252C163.937 42.0352 157.207 38.3452 150.687 36.9152M174.807 42.8452C168.247 40.3452 162.187 40.8452 149.947 38.4252" stroke="#1E1E1E" stroke-linecap="round"/>
<path d="M166.737 57.3552C159.027 51.1052 155.537 41.4552 150.687 36.9152M166.647 57.8652C162.127 51.7252 158.037 48.5952 149.947 38.4252" stroke="#1E1E1E" stroke-linecap="round"/>
<path d="M197.408 149.57C181.148 154.75 161.888 151.84 142.248 162.23M199.678 147.54C185.568 152.02 172.008 155.32 145.618 159.67" stroke="#1E1E1E" stroke-linecap="round"/>
<path d="M166.328 147.34C159.768 152.29 151.718 153.01 143.728 160.52M167.458 146.33C161.698 150.49 156.208 153.91 145.418 159.24" stroke="#1E1E1E" stroke-linecap="round"/>
<path d="M169.338 164.18C161.958 163.76 152.948 159.15 143.728 160.52M170.468 163.16C163.938 162.94 157.668 161.99 145.418 159.24" stroke="#1E1E1E" stroke-linecap="round"/>
<path d="M244.288 208.996C219.588 229.946 197.708 251.456 184.718 261.166M247.808 211.126C221.228 233.656 198.958 252.916 184.448 263.496" stroke="#1E1E1E" stroke-linecap="round"/>
<path d="M195.888 241.326C191.178 249.516 187.618 257.946 184.758 261.556M197.658 242.396C191.788 251.396 188.058 258.696 184.628 262.716" stroke="#1E1E1E" stroke-linecap="round"/>
<path d="M206.398 254.826C197.638 257.666 189.918 260.756 184.758 261.556M208.158 255.886C198.128 259.516 190.228 261.456 184.628 262.716" stroke="#1E1E1E" stroke-linecap="round"/>
<path d="M292.354 223.97C294.614 252.42 295.874 284.81 302.164 303.32M294.344 222.2C295.904 247.3 297.584 273.14 299.534 303.95" stroke="#1E1E1E" stroke-linecap="round"/>
<path d="M287.724 281.87C291.584 289.57 295.244 299.18 301.124 303.07M288.714 280.99C291.854 287.66 295.364 294.77 299.814 303.39" stroke="#1E1E1E" stroke-linecap="round"/>
<path d="M304.784 280.79C302.574 288.73 300.154 298.73 301.124 303.07M305.784 279.9C303.564 287.08 301.704 294.53 299.814 303.39" stroke="#1E1E1E" stroke-linecap="round"/>
<path d="M264.534 15.1591C263.754 15.1591 263.064 15.0208 262.466 14.7443C261.871 14.464 261.407 14.0795 261.074 13.5909C260.741 13.0985 260.576 12.5379 260.58 11.9091C260.576 11.4167 260.672 10.9621 260.869 10.5455C261.066 10.125 261.335 9.77462 261.676 9.49432C262.021 9.21023 262.405 9.0303 262.83 8.95455V8.88636C262.273 8.74242 261.83 8.42992 261.5 7.94886C261.17 7.46401 261.008 6.91288 261.011 6.29545C261.008 5.70455 261.157 5.17614 261.46 4.71023C261.763 4.24432 262.18 3.87689 262.71 3.60795C263.244 3.33901 263.852 3.20455 264.534 3.20455C265.208 3.20455 265.811 3.33901 266.341 3.60795C266.871 3.87689 267.288 4.24432 267.591 4.71023C267.898 5.17614 268.053 5.70455 268.057 6.29545C268.053 6.91288 267.884 7.46401 267.551 7.94886C267.222 8.42992 266.784 8.74242 266.239 8.88636V8.95455C266.659 9.0303 267.038 9.21023 267.375 9.49432C267.712 9.77462 267.981 10.125 268.182 10.5455C268.383 10.9621 268.485 11.4167 268.489 11.9091C268.485 12.5379 268.314 13.0985 267.977 13.5909C267.644 14.0795 267.18 14.464 266.585 14.7443C265.994 15.0208 265.311 15.1591 264.534 15.1591ZM264.534 13.9091C265.061 13.9091 265.515 13.8239 265.898 13.6534C266.28 13.483 266.576 13.2424 266.784 12.9318C266.992 12.6212 267.099 12.2576 267.102 11.8409C267.099 11.4015 266.985 11.0133 266.761 10.6761C266.538 10.339 266.233 10.0739 265.847 9.88068C265.464 9.6875 265.027 9.59091 264.534 9.59091C264.038 9.59091 263.595 9.6875 263.205 9.88068C262.818 10.0739 262.513 10.339 262.29 10.6761C262.07 11.0133 261.962 11.4015 261.966 11.8409C261.962 12.2576 262.063 12.6212 262.267 12.9318C262.475 13.2424 262.773 13.483 263.159 13.6534C263.545 13.8239 264.004 13.9091 264.534 13.9091ZM264.534 8.38636C264.951 8.38636 265.32 8.30303 265.642 8.13636C265.968 7.9697 266.224 7.73674 266.409 7.4375C266.595 7.13826 266.689 6.78788 266.693 6.38636C266.689 5.99242 266.597 5.64962 266.415 5.35795C266.233 5.0625 265.981 4.83523 265.659 4.67614C265.337 4.51326 264.962 4.43182 264.534 4.43182C264.099 4.43182 263.718 4.51326 263.392 4.67614C263.066 4.83523 262.814 5.0625 262.636 5.35795C262.458 5.64962 262.371 5.99242 262.375 6.38636C262.371 6.78788 262.46 7.13826 262.642 7.4375C262.828 7.73674 263.083 7.9697 263.409 8.13636C263.735 8.30303 264.11 8.38636 264.534 8.38636ZM274.098 12.9545V5.45455H275.371V12.9545H274.098ZM270.984 9.84091V8.56818H278.484V9.84091H270.984ZM286.599 18.2727C286.372 18.2727 286.17 18.2538 285.991 18.2159C285.813 18.1818 285.69 18.1477 285.622 18.1136L285.963 16.9318C286.289 17.0152 286.577 17.0455 286.827 17.0227C287.077 17 287.298 16.8883 287.491 16.6875C287.688 16.4905 287.868 16.1705 288.031 15.7273L288.281 15.0455L285.054 6.27273H286.509L288.918 13.2273H289.009L291.418 6.27273H292.872L289.168 16.2727C289.001 16.7235 288.795 17.0966 288.548 17.392C288.302 17.6913 288.016 17.9129 287.69 18.0568C287.368 18.2008 287.005 18.2727 286.599 18.2727ZM297.989 15.1818C297.148 15.1818 296.422 14.9962 295.813 14.625C295.206 14.25 294.739 13.7273 294.409 13.0568C294.083 12.3826 293.92 11.5985 293.92 10.7045C293.92 9.81061 294.083 9.02273 294.409 8.34091C294.739 7.6553 295.197 7.12121 295.784 6.73864C296.375 6.35227 297.064 6.15909 297.852 6.15909C298.307 6.15909 298.756 6.23485 299.199 6.38636C299.642 6.53788 300.045 6.78409 300.409 7.125C300.773 7.46212 301.063 7.90909 301.278 8.46591C301.494 9.02273 301.602 9.70833 301.602 10.5227V11.0909H294.875V9.93182H300.239C300.239 9.43939 300.14 9 299.943 8.61364C299.75 8.22727 299.474 7.92235 299.114 7.69886C298.758 7.47538 298.337 7.36364 297.852 7.36364C297.318 7.36364 296.856 7.49621 296.466 7.76136C296.08 8.02273 295.782 8.36364 295.574 8.78409C295.366 9.20455 295.261 9.6553 295.261 10.1364V10.9091C295.261 11.5682 295.375 12.1269 295.602 12.5852C295.833 13.0398 296.153 13.3864 296.563 13.625C296.972 13.8598 297.447 13.9773 297.989 13.9773C298.341 13.9773 298.659 13.928 298.943 13.8295C299.231 13.7273 299.479 13.5758 299.688 13.375C299.896 13.1705 300.057 12.9167 300.17 12.6136L301.466 12.9773C301.33 13.4167 301.1 13.803 300.778 14.1364C300.456 14.4659 300.059 14.7235 299.585 14.9091C299.112 15.0909 298.58 15.1818 297.989 15.1818ZM306.21 15.2045C305.657 15.2045 305.155 15.1004 304.705 14.892C304.254 14.6799 303.896 14.375 303.631 13.9773C303.366 13.5758 303.233 13.0909 303.233 12.5227C303.233 12.0227 303.331 11.6174 303.528 11.3068C303.725 10.9924 303.989 10.7462 304.318 10.5682C304.648 10.3902 305.011 10.2576 305.409 10.1705C305.811 10.0795 306.214 10.0076 306.619 9.95455C307.15 9.88636 307.58 9.83523 307.909 9.80114C308.242 9.76326 308.485 9.70076 308.636 9.61364C308.792 9.52652 308.869 9.375 308.869 9.15909V9.11364C308.869 8.55303 308.716 8.11742 308.409 7.80682C308.106 7.49621 307.646 7.34091 307.028 7.34091C306.388 7.34091 305.886 7.48106 305.523 7.76136C305.159 8.04167 304.903 8.34091 304.756 8.65909L303.483 8.20455C303.71 7.67424 304.013 7.26136 304.392 6.96591C304.775 6.66667 305.191 6.45833 305.642 6.34091C306.097 6.2197 306.544 6.15909 306.983 6.15909C307.263 6.15909 307.585 6.19318 307.949 6.26136C308.316 6.32576 308.67 6.46023 309.011 6.66477C309.356 6.86932 309.642 7.17803 309.869 7.59091C310.097 8.00379 310.21 8.55682 310.21 9.25V15H308.869V13.8182H308.801C308.71 14.0076 308.559 14.2102 308.347 14.4261C308.134 14.642 307.852 14.8258 307.5 14.9773C307.148 15.1288 306.718 15.2045 306.21 15.2045ZM306.415 14C306.945 14 307.392 13.8958 307.756 13.6875C308.123 13.4792 308.4 13.2102 308.585 12.8807C308.775 12.5511 308.869 12.2045 308.869 11.8409V10.6136C308.813 10.6818 308.688 10.7443 308.494 10.8011C308.305 10.8542 308.085 10.9015 307.835 10.9432C307.589 10.9811 307.349 11.0152 307.114 11.0455C306.883 11.072 306.695 11.0947 306.551 11.1136C306.203 11.1591 305.877 11.233 305.574 11.3352C305.275 11.4337 305.032 11.5833 304.847 11.7841C304.665 11.9811 304.574 12.25 304.574 12.5909C304.574 13.0568 304.746 13.4091 305.091 13.6477C305.439 13.8826 305.881 14 306.415 14ZM312.658 15V6.27273H313.953V7.59091H314.044C314.203 7.15909 314.491 6.80871 314.908 6.53977C315.324 6.27083 315.794 6.13636 316.317 6.13636C316.415 6.13636 316.538 6.13826 316.686 6.14205C316.834 6.14583 316.946 6.15152 317.021 6.15909V7.52273C316.976 7.51136 316.872 7.49432 316.709 7.47159C316.55 7.44508 316.381 7.43182 316.203 7.43182C315.779 7.43182 315.4 7.52083 315.067 7.69886C314.737 7.87311 314.476 8.11553 314.283 8.42614C314.093 8.73295 313.999 9.08333 313.999 9.47727V15H312.658ZM324.793 8.22727L323.588 8.56818C323.512 8.36742 323.401 8.17235 323.253 7.98295C323.109 7.78977 322.912 7.63068 322.662 7.50568C322.412 7.38068 322.092 7.31818 321.702 7.31818C321.168 7.31818 320.723 7.44129 320.366 7.6875C320.014 7.92992 319.838 8.23864 319.838 8.61364C319.838 8.94697 319.959 9.21023 320.202 9.40341C320.444 9.59659 320.823 9.75758 321.338 9.88636L322.634 10.2045C323.414 10.3939 323.995 10.6837 324.378 11.0739C324.76 11.4602 324.952 11.9583 324.952 12.5682C324.952 13.0682 324.808 13.5152 324.52 13.9091C324.236 14.303 323.838 14.6136 323.327 14.8409C322.815 15.0682 322.221 15.1818 321.543 15.1818C320.652 15.1818 319.916 14.9886 319.332 14.6023C318.749 14.2159 318.38 13.6515 318.224 12.9091L319.497 12.5909C319.618 13.0606 319.848 13.4129 320.185 13.6477C320.526 13.8826 320.971 14 321.52 14C322.145 14 322.641 13.8674 323.009 13.6023C323.38 13.3333 323.565 13.0114 323.565 12.6364C323.565 12.3333 323.459 12.0795 323.247 11.875C323.035 11.6667 322.709 11.5114 322.27 11.4091L320.815 11.0682C320.016 10.8788 319.429 10.5852 319.054 10.1875C318.683 9.78598 318.497 9.28409 318.497 8.68182C318.497 8.18939 318.635 7.75379 318.912 7.375C319.192 6.99621 319.573 6.69886 320.054 6.48295C320.539 6.26705 321.088 6.15909 321.702 6.15909C322.565 6.15909 323.243 6.34848 323.736 6.72727C324.232 7.10606 324.584 7.60606 324.793 8.22727Z" fill="#1E1E1E"/>
</svg>
